<?xml version="1.0" encoding="UTF-8"?>
<svg width="100" height="100" version="1.1" viewBox="0 0 26.459 26.458" xmlns="http://www.w3.org/2000/svg">
  <path d="m9.5391 4.5072q1.7573-0.74917 3.6903-0.74917t3.6811 0.74917q1.7573 0.74917 3.0244 2.0255 1.2671 1.2764 2.0163 3.0337 0.74917 1.7481 0.74917 3.6718 0 1.9238-0.74917 3.6718-0.74917 1.7481-2.0163 3.0244-1.2671 1.2671-3.0244 2.0163-1.7481 0.74917-3.6811 0.74917t-3.6903-0.74917q-1.7481-0.74917-3.0152-2.0163-1.2671-1.2764-2.0163-3.0244-0.74917-1.7481-0.74917-3.6718 0-1.9238 0.74917-3.6718 0.74917-1.7573 2.0163-3.0337 1.2671-1.2764 3.0152-2.0255zm-3.3944 5.7436q-0.60118 1.4243-0.60118 2.9874 0 1.5631 0.60118 2.9874 0.61043 1.4151 1.6371 2.451 1.0359 1.0266 2.451 1.6278 1.4243 0.61043 2.9967 0.61043t2.9874-0.61043q1.4243-0.60118 2.451-1.6278 1.0359-1.0359 1.6371-2.451 0.61043-1.4243 0.61043-2.9874 0-1.5631-0.61043-2.9874-0.60118-1.4336-1.6371-2.4695-1.0266-1.0359-2.451-1.6371-1.4151-0.61043-2.9874-0.61043t-2.9967 0.61043q-1.4151 0.60118-2.451 1.6371-1.0266 1.0359-1.6371 2.4695zm7.9726-0.8694v2.9504h2.9597q0.37921 0 0.62893 0.26822 0.25897 0.26822 0.25897 0.63818t-0.25897 0.62893q-0.24972 0.24972-0.62893 0.24972h-2.9597v2.9504q0 0.37921-0.25897 0.63818-0.24972 0.25897-0.62893 0.25897t-0.63818-0.25897q-0.24972-0.25897-0.24972-0.63818v-2.9504h-2.9597q-0.37921 0-0.63818-0.24972-0.24972-0.25897-0.24972-0.62893t0.24972-0.63818q0.25897-0.26822 0.63818-0.26822h2.9597v-2.9504q0-0.37921 0.24972-0.62893 0.25897-0.25897 0.63818-0.25897t0.62893 0.25897q0.25897 0.24972 0.25897 0.62893z" fill="#8899aa" stroke-width=".26459" aria-label="ï”"/>
</svg>
