<?xml version="1.0" encoding="UTF-8"?>
<svg width="89.416" height="100" version="1.1" viewBox="0 0 23.657 26.458" xmlns="http://www.w3.org/2000/svg">
  <path d="m22.042 26.458c1.1524 0 1.6157-1.7703 1.6157-3.1285v-22.639c-0.49399 0.64093-0.98859 1.2811-1.482 1.9229-0.70743-0.86788-1.411-1.7407-2.1168-2.6107-0.67272 0.87194-1.3466 1.7425-2.0183 2.6156-0.69437-0.86978-1.3853-1.7439-2.0781-2.6156-0.68494 0.87033-1.3708 1.7396-2.055 2.6107-0.69144-0.87106-1.3829-1.7421-2.0744-2.6131-0.56794 0.71548-1.1359 1.431-1.7039 2.1465l-6.16e-4 1.4e-4c-0.4128 0.98165-0.81853-0.27184-1.2283-0.62058-0.42376-0.40916-0.84672-1.3243-1.271-1.4355-0.6694 0.84258-1.3392 1.6847-2.0083 2.5277-0.67148-0.87268-1.3443-1.7437-2.0164-2.6156-0.70572 0.87009-1.4093 1.7428-2.1168 2.6107-0.4935-0.64231-0.98921-1.2819-1.4838-1.9229 0.016199 7.8939-0.03251 15.791 0.024403 23.684 0.13698 1.427 1.3248 2.0839 2.4069 2.0839m-0.021337-20.232h19.549v5.992h-20.209v-5.992zm0 7.7423h9.392v10.667h-10.051v-10.667zm11.801 0h7.7483v4.4583h-8.4072v-4.4583zm0 6.2813h7.7483v4.3853c-4.0912 0-4.316 1.3e-5 -8.4072 0v-4.3853z" fill="#ffffff" stroke-width=".26458"/>
</svg>
