<?xml version="1.0" encoding="UTF-8"?>
<svg width="89.35" height="100" version="1.1" viewBox="0 0 23.64 26.458" xmlns="http://www.w3.org/2000/svg">
  <path d="m3.8891 9.785e-5v2.6646h-1.3012c-0.74354 0-1.3737 0.25818-1.89 0.77451-0.51636 0.51634-0.69794 1.1458-0.69793 1.8893v18.465c0 0.74354 0.18159 1.3737 0.69793 1.89 0.51634 0.51637 1.2231 0.77452 1.9666 0.77451h18.311c0.74354 0 1.3737-0.26373 1.89-0.7904 0.51633-0.51634 0.77451-1.1409 0.77451-1.8742v-18.465c0-0.74354-0.1816-1.373-0.69793-1.8893-0.51634-0.51634-1.1465-0.77451-1.89-0.77451h-1.3012v-2.6646h-2.3936v2.6646h-11.076v-2.6646h-2.3929zm-2.192 6.2583h20.246v16.415c0 1.2175-0.08533 1.9248-1.1842 1.9247h-17.878c-1.0988 2.5e-5 -1.1849-0.70722-1.1849-1.9247v-16.415zm9.9315 7.4699v8.6373h8.068v-8.6373z" fill="#ffffff"/>
</svg>
