<?xml version="1.0" encoding="UTF-8"?>
<svg width="100" height="100" version="1.1" viewBox="0 0 26.458 26.458" xmlns="http://www.w3.org/2000/svg">
  <path d="m12.907 0.0035021c-1.4543 0.030866-2.9621 0.32094-4.319 0.82818-3.2852 1.1816-6.0133 3.7252-7.4319 6.918-1.4405 3.255-1.5483 7.0286-0.24983 10.356 1.0702 2.7574 3.1111 5.1182 5.6803 6.583 1.5706 0.912 3.402 1.5233 5.2405 1.6971 2.6683 0.28148 5.3627-0.26184 7.7343-1.5193 2.9391-1.5618 5.199-4.2665 6.2175-7.4365 0.4134-1.2302 0.65502-2.6197 0.67534-3.9306 0.03194-1.3813-0.16291-2.7772-0.55366-4.0942-0.66839-2.2793-1.9777-4.4201-3.7735-6.0125-2.2597-2.0476-5.2376-3.2268-8.2505-3.3779-0.29972-0.012392-0.65034-0.018959-0.96954-0.010961zm0.32185 2.1174c3.8207-0.043922 7.5579 2.0902 9.5034 5.3713 2.1502 3.4385 2.1339 8.0816-0.02511 11.512-1.934 3.2001-5.5622 5.3222-9.3147 5.3275-3.4396 0.092246-6.8373-1.5843-8.9308-4.3012-1.7351-2.1991-2.5687-5.0695-2.2906-7.8559 0.32049-3.8249 2.8257-7.3508 6.2934-8.977 1.4783-0.7208 3.1218-1.0787 4.7644-1.0769zm0.74509 4.4625v6.9561l5.9779 3.5402c1.2229 0.70605 0.27854 2.4921-1.1335 1.6769l-6.9716-4.2233v-7.9498c0-1.6643 2.1272-1.6355 2.1272 0z" stroke-width=".26458"/>
</svg>
