<?xml version="1.0" encoding="UTF-8"?>
<svg width="101.5" height="100" version="1.1" viewBox="0 0 26.856 26.458" xmlns="http://www.w3.org/2000/svg">
  <path d="m21.44 0-1.2263 2.4148-2.7109-0.27905 1.9063 1.9435-0.32091 0.73328c0.37359 0.25098 0.72564 0.51682 1.0532 0.79942l0.5953-0.3085 2.0221 1.8386-0.41186-2.6722 2.3487-1.3808-2.682-0.43563zm3.3362 7.3297-0.80304 1.5849-1.4201-0.15658c0.07718 0.16199 0.14968 0.32739 0.21859 0.49505l0.71261 0.68367-0.27853 0.60719c0.05175 0.19365 0.10028 0.38952 0.14262 0.58962 0.0082 0.03858 0.01396 0.07673 0.0217 0.11524l0.95084-0.47697 1.3022 1.1803-0.29869-1.7709 1.5322-0.84438-1.7368-0.27078zm-16.787-2.7765c-0.67735 0.43872-1.3153 0.96944-1.9125 1.5942-1.9405 2.03-2.8828 4.4526-2.8267 7.2682 0.044887 2.2514 0.72367 4.2275 2.0334 5.9288 0.013063 0.01731 0.02557 0.03497 0.038757 0.05219 0.012988 0.01665 0.02668 0.03301 0.03979 0.04961 0.29299 0.37737 0.61552 0.73477 0.9684 1.0712 0.011421 0.01112 0.022105 0.0225 0.033589 0.03359 1.3422 1.283 2.8548 2.1266 4.5361 2.5368 1.0455 0.27127 2.1246 0.36045 3.237 0.26768 1e-3 -8.5e-5 0.0021 8.6e-5 0.0031 0 1.8466-0.11965 3.4963-0.68096 4.9516-1.6789 0.04087-0.02733 0.08205-0.0542 0.12247-0.08216 0.55444-0.3835 1.0665-0.82769 1.5379-1.3307 0.09492-0.10129 0.18905-0.20392 0.2806-0.31006 0.04278-0.04812 0.08832-0.09518 0.13022-0.14366-0.0035-2.98e-4 -0.0069-7.34e-4 -0.01034-1e-3 0.27061-0.32539 0.52772-0.67007 0.7679-1.0392h-5.17e-4c0.11228-0.1726 0.2174-0.34631 0.31833-0.52093-10.333 1.0732-15.461-7.1832-14.249-13.696z" fill="#ffffff"/>
</svg>
