<?xml version="1.0" encoding="UTF-8"?>
<svg width="89.11" height="100" version="1.1" viewBox="0 0 23.577 26.459" xmlns="http://www.w3.org/2000/svg">
  <path d="m11.93 0.0030312c-0.52526-4.55e-4 -1.0334 0.2656-1.3662 0.64829-0.4048 0.43971-0.53851 1.089-0.37763 1.6597 0.15144 0.57703 0.61299 1.0845 1.2089 1.2069 0.22646 0.05799 0.42727 0.18259 0.59648 0.34068 0.7081 0.51591 1.5696 0.73912 2.3854 1.0226 0.07506 0.21154-0.05351 0.42124-0.02028 0.63575 0.01296 0.51011 0.24918 0.99743 0.60436 1.3441 0.36407 0.3677 0.88357 0.55493 1.3977 0.53434 0.10851 0.0093 0.23027-0.033528 0.33022-0.00788 0.69158 0.62547 1.4931 1.147 2.0564 1.9018 0.44601 0.60452 0.70189 1.3233 0.87179 2.0489-0.68894 0.6283-0.89224 1.7694-0.35502 2.555 0.45877 0.751 1.4626 1.1149 2.2926 0.81029 0.61459-0.19051 1.1402-0.6958 1.3369-1.3224 0.10035-0.33138 0.10657-0.65792 0.02971-1.0007-0.18362-0.80047-0.86988-1.4706-1.6904-1.5869-0.13962-0.02586-0.28202-0.03171-0.42375-0.02765-0.37851-1.1868-0.9836-2.3607-1.944-3.1921-0.32866-0.28046-0.68338-0.56849-1.0077-0.86804 0.08945-0.12697 0.24432-0.2165 0.40037-0.1571 0.56848 0.1514 1.1484 0.25907 1.71 0.44067-0.05255 0.9894 0.855 1.9145 1.8484 1.8578 0.88261-0.00275 1.7315-0.74372 1.758-1.6445 0.06867-0.89529-0.60933-1.8183-1.5212-1.9213-0.53747-0.07904-1.0934 0.12691-1.4861 0.49429-0.31541 0.01294-0.6033-0.14432-0.91326-0.17609-0.43195-0.09064-0.86374-0.18201-1.2955-0.27337-0.02529-0.52575-0.26298-1.0336-0.62839-1.3939-0.46544-0.48498-1.1952-0.69864-1.8449-0.51276-0.27432 0.07291-0.52754 0.21281-0.74557 0.39339-0.64648-0.23783-1.3044-0.44524-1.9353-0.72348 0.39005-0.48247 0.56731-1.1397 0.43086-1.749-0.12014-0.58351-0.58875-1.1183-1.1806-1.2806-0.16964-0.04768-0.34631-0.068115-0.52232-0.056845zm-0.04935 0.91739c0.41952-0.042616 0.7914 0.30046 0.87166 0.69725 0.10347 0.41442-0.14546 0.87683-0.55979 0.99878-0.41681 0.16713-0.93433-0.082263-1.0497-0.51871-0.15557-0.50102 0.17941-1.1533 0.73782-1.1773zm-4.8163 2.1293c-1.0626 0.01247-1.9745 1.0248-1.9151 2.0787 0.0015 0.39398 0.12867 0.78021 0.33435 1.1142-0.64477 0.72589-1.185 1.5338-1.5123 2.454-0.26431 0.6852-0.28508 1.4225-0.45011 2.1305-0.03767 0.04857-0.1705-0.012015-0.23074-0.048964-0.14629-0.13207-0.13366-0.35122-0.21239-0.52077-0.14103-0.45142-0.29148-0.90028-0.4014-1.3607 0.86312-0.45454 1.1986-1.6812 0.66586-2.5028-0.34811-0.58542-1.0432-0.95381-1.7124-0.88884-0.7711 0.07433-1.4257 0.70235-1.5867 1.4515-0.18519 0.74999 0.23824 1.5694 0.92217 1.9064 0.11419 0.069949 0.25749 0.092309 0.36871 0.15451 0.15982 0.22128 0.15714 0.50915 0.27389 0.75035 0.15317 0.45687 0.32151 0.9085 0.46367 1.369-0.7922 0.52773-1.175 1.6442-0.76546 2.5234 0.21132 0.47182 0.6283 0.83823 1.1135 1.0102 0.08541 0.22181 0.082674 0.46419 0.15025 0.69105 0.08976 0.44437 0.18518 0.8882 0.23552 1.3392-0.8167-0.11875-1.7128 0.27951-2.0923 1.0282-0.38464 0.73983-0.07929 1.7171 0.60036 2.1875 0.20618 0.13777 0.48049 0.26095 0.74479 0.3014 0.66289 0.1271 1.3866-0.14323 1.7816-0.69544 0.34084-0.45564 0.43934-1.0988 0.23035-1.6159-0.05658-0.35758 0.07348-0.71281 0.03204-1.0718-0.02784-0.69915-0.22213-1.3627-0.362-2.0498 0.12159-0.16686 0.34846-0.16061 0.50204-0.28422 0.68356-0.40699 1.1094-1.3058 0.89969-2.1047-0.08027-0.3198-0.24201-0.61338-0.44339-0.87256 0.1671-0.84744 0.21617-1.7333 0.50191-2.5606 0.27063-0.75622 0.77001-1.4057 1.3449-1.9574 0.06839-0.084027 0.18698 0.016687 0.28138 0.01137 0.68225 0.10834 1.4087-0.12707 1.8675-0.65358 0.33833-0.40329 0.51997-0.93874 0.46974-1.4656-0.03131-0.41647-0.22223-0.88292-0.55023-1.1878-0.39697-0.41807-0.96687-0.68744-1.5495-0.66004zm-0.013307 0.92398c0.2835-0.019417 0.56528 0.088026 0.7789 0.27195 0.47976 0.36796 0.50648 1.1751 0.02713 1.5543-0.45732 0.41624-1.2901 0.36553-1.619-0.1872-0.41698-0.62027 0.049366-1.6192 0.81301-1.6391zm9.3179 0.33732c0.6463-0.026645 1.1425 0.65514 1.045 1.2666-0.05639 0.44721-0.43822 0.81065-0.88329 0.86275-0.49479 0.101-1.0351-0.22223-1.1485-0.72038-0.16966-0.6313 0.30172-1.4027 0.98677-1.409zm-4.498 1.4529c-0.07444-0.00322-0.14957-0.00178-0.22492 0.00478-1.13 0.0825-2.0742 1.2188-1.9018 2.3483 0.14133 1.1183 1.2229 2.0299 2.3521 1.9624 0.04829 0.03439 0.01781 0.15602 0.02868 0.22479-0.0018 0.15565-0.04268 0.30767-0.10413 0.44985-0.91262-0.0469-1.8224 0.49151-2.2207 1.314-0.22462-0.03207-0.44223-0.1229-0.60242-0.28732 0.32481-0.50101 0.42584-1.1375 0.31045-1.7066-0.13862-0.78012-0.70989-1.5003-1.4953-1.6972-0.87063-0.23352-1.8285 0.22503-2.2854 0.98212-0.17424 0.27693-0.28769 0.63278-0.29908 0.9745-0.06625 0.68751 0.18231 1.4252 0.74273 1.8529 0.49865 0.4109 1.1875 0.58616 1.8197 0.44068 0.44919 0.34818 0.90093 0.73039 1.4835 0.81533 0.14742 0.0093 0.24971 0.03342 0.085008 0.14495-0.13156 0.1497-0.32188 0.22652-0.48977 0.32595-0.16342 0.07947-0.3662 0.05386-0.49984-0.07015-0.92061-0.5743-2.2607-0.24117-2.82 0.68446-0.51288 0.79739-0.38794 1.9504 0.31949 2.5924 0.60287 0.57952 1.5655 0.75882 2.3221 0.38564 0.73491-0.34379 1.2343-1.1408 1.1846-1.9483 0.01006-0.12713-0.04546-0.26954-0.02558-0.38383 0.22701-0.20223 0.49943-0.34194 0.7528-0.50695-0.03272 0.44814-0.15244 0.89007-0.11007 1.342 0.01148 0.28748 0.0742 0.57061 0.06421 0.85939-0.08354 0.41144-0.38779 0.75803-0.38138 1.1912-0.09411 0.94617 0.56614 1.9131 1.4954 2.1407 0.92373 0.26643 2.0257-0.16595 2.4478-1.0471 0.45534-0.9128 0.16328-2.1676-0.72903-2.7027-0.40363-0.2461-0.88176-0.31069-1.342-0.36419-0.22777-0.07977-0.20623-0.36532-0.18087-0.55785 0.034-0.17199 0.22867-0.22658 0.3797-0.18694 0.61711-0.0081 1.2196-0.30304 1.6353-0.75448 0.16443-0.17727 0.29166-0.38532 0.39106-0.60501 0.27463 0.0037 0.57393 0.24579 0.5094 0.54067-0.17584 0.46031-0.40436 0.95145-0.28836 1.4561 0.12333 0.90847 0.9255 1.7124 1.8619 1.7274 1.0794 0.07037 2.1725-0.76874 2.2866-1.8633 0.05146-0.42568-0.05181-0.86814-0.24534-1.221-0.30241-0.58193-0.8961-1.0051-1.5531-1.0667-0.21812-0.03296-0.44607-0.0066-0.65991-0.0478-0.43706-0.18035-0.69915-0.60098-1.1459-0.76017-0.25128-0.10555-0.50172-0.15291-0.76443-0.22273 0.26245-0.18329 0.52063-0.38833 0.83406-0.47685 0.45748 0.47139 1.1453 0.67302 1.7974 0.57038 0.90226-0.13944 1.6463-0.94142 1.7285-1.8494 0.08141-0.78389-0.36713-1.5577-1.0065-1.9887-0.42307-0.28809-0.95502-0.44702-1.4656-0.3483-0.47468 0.086035-0.94316 0.36915-1.2382 0.76844-0.33117 0.43332-0.45292 0.9893-0.45088 1.5261-0.1247 0.32595-0.4988 0.41065-0.75888 0.59428-0.11465 0.08264-0.0015-0.17137-0.01188-0.24275 0.08743-0.53049 0.14352-1.0936 0.02015-1.6294 0.82801-0.81815 0.74449-2.3298-0.14792-3.0684-0.38909-0.34107-0.88222-0.59308-1.4033-0.6156zm9.9501 0.45734c0.64087-0.035796 1.0335 0.7721 0.71262 1.2921-0.29131 0.53844-1.1636 0.49697-1.4484-0.025968-0.34825-0.51813 0.13072-1.2831 0.73575-1.2661zm-19.945 0.2058c0.55473 0.040616 0.92017 0.72364 0.67671 1.2247-0.24382 0.5633-1.1227 0.594-1.4537 0.098315-0.4013-0.49446 0.042644-1.3246 0.66366-1.3224 0.03854-0.00325 0.07632-0.00335 0.1133-6.5e-4zm10.06 0.339c0.47061-0.00784 0.882 0.35709 1.0089 0.79699 0.21142 0.59144-0.20222 1.304-0.82153 1.4094-0.65077 0.15193-1.2851-0.45668-1.2772-1.0981-0.04918-0.59693 0.5038-1.1235 1.0899-1.1082zm4.2734 2.5669c0.59397-0.063998 1.1156 0.44012 1.1972 1.0072 0.13657 0.63323-0.40242 1.2701-1.0331 1.3112-0.57063 0.07061-1.1038-0.39878-1.1744-0.95538-0.11329-0.62703 0.35392-1.3245 1.0103-1.363zm-8.6889 0.053227c0.048958 0.00317 0.097642 0.00994 0.14547 0.020542 0.79329 0.14619 1.1712 1.2547 0.6302 1.8537-0.46444 0.58033-1.5108 0.40584-1.7874-0.27557-0.32009-0.63898 0.13214-1.5466 0.86481-1.5976 0.048809-0.0037 0.097933-0.0042 0.14689-0.00103zm13.401 2.3423c0.4895-0.03731 0.93066 0.33172 1.0727 0.78471 0.1782 0.49271-0.10622 1.0804-0.59881 1.2545-0.45534 0.19894-1.0559 0.0542-1.3048-0.39442-0.39898-0.62985 0.06703-1.6183 0.83096-1.6447zm-17.785 0.0093c0.30476-0.01699 0.60649 0.12377 0.80603 0.35153 0.40008 0.40633 0.36278 1.1492-0.10193 1.4913-0.49284 0.39606-1.3472 0.30051-1.6476-0.28668-0.36855-0.65404 0.20532-1.5605 0.94349-1.5561zm8.6983 0.13139c0.47656-0.02825 0.91422 0.30068 1.1012 0.72528 0.29363 0.56612 0.02343 1.3435-0.57155 1.5848-0.61994 0.28087-1.4202-0.12193-1.5738-0.78161-0.21299-0.67985 0.3082-1.5197 1.0441-1.5285zm4.4301 2.6108c0.56218-0.01427 1.0296 0.48372 1.0888 1.0229 0.10649 0.58902-0.386 1.1835-0.97941 1.207-0.5763 0.056-1.107-0.43358-1.149-1.0005-0.09472-0.60737 0.41242-1.2424 1.0396-1.2295zm-8.7652 0.02144c0.11826-0.0057 0.23913 0.0026 0.35295 0.03682 0.79509 0.22055 1.0616 1.389 0.45514 1.9421-0.51364 0.54597-1.5241 0.30909-1.8149-0.35876-0.34344-0.69319 0.25822-1.5827 1.0068-1.6202zm4.3921 2.5757c0.27748-0.02122 0.55924 0.08333 0.76236 0.27195 0.50065 0.41999 0.56038 1.3139 0.0115 1.7202-0.53446 0.43565-1.4852 0.21213-1.694-0.46742-0.23724-0.63918 0.21065-1.4824 0.92011-1.5247zm9.8941 0.15516c-0.05699-0.0011-0.11428 0.0011-0.1717 7e-3 -0.4627 0.0538-0.89155 0.30219-1.1908 0.65591-0.96397 0.25909-1.7188 0.94845-2.4641 1.5743-0.11041 0.08379-0.24308 0.01401-0.31174-0.08591-0.76621-0.68732-2.1055-0.60412-2.7422 0.2204-0.14078 0.16981-0.25694 0.35914-0.34946 0.55914-0.82698 0.24438-1.6275 0.59814-2.4848 0.72645-0.6583 0.09369-1.3296 0.01476-1.9648-0.17208-0.15539-0.04146-0.30996-0.08694-0.46496-0.13011-0.16748-0.87828-0.95551-1.64-1.8697-1.6539-0.903-0.06634-1.8001 0.58493-2.0061 1.469-0.23817 0.83484 0.099447 1.8341 0.87411 2.2659 0.77604 0.46634 1.8789 0.33321 2.5165-0.33151 0.13607-0.13096 0.2433-0.2877 0.34094-0.44843 1.2992 0.3354 2.7091 0.41409 3.9878-0.05 0.3406-0.10568 0.67441-0.23551 1.0246-0.30748 0.0531 0.14477 0.04083 0.32086-0.09173 0.41923-0.41821 0.39171-0.82304 0.83802-1.2703 1.2153-0.78604-0.54355-1.996-0.30659-2.5 0.51057-0.51826 0.74407-0.36692 1.9008 0.39533 2.4247 0.57522 0.42449 1.4052 0.4798 2.0129 0.1195 0.63143-0.36 0.94663-1.1389 0.82321-1.8434-0.01492-0.22314 0.22651-0.3335 0.3598-0.4722 0.39667-0.40046 0.75579-0.83926 1.182-1.2103 0.22352 0.06704 0.42845 0.18896 0.66469 0.21175 0.57945 0.10338 1.2646-0.06857 1.7272-0.49132 0.46634-0.41327 0.66971-1.0696 0.57891-1.6794 0.54486-0.4188 1.0614-0.87503 1.6323-1.2591 0.21309 0.60404 0.72207 1.1239 1.3521 1.3108 0.60478 0.19726 1.3052 9.25e-4 1.7254-0.47491 0.70855-0.73206 0.60262-2.0608-0.20839-2.6747-0.32309-0.22789-0.70824-0.39782-1.1072-0.40528zm-19.46 0.381c0.018977-0.0017 0.038094 0.0011 0.057103 5.25e-4 0.57413-0.04371 1.0017 0.64093 0.76908 1.1508-0.23163 0.6218-1.2319 0.71921-1.5618 0.13539-0.33422-0.52564 0.13193-1.2795 0.73562-1.2868zm19.356 0.601c0.63426-0.04326 1.1817 0.66819 0.89013 1.2603-0.27075 0.57693-1.1987 0.58677-1.507 0.03824-0.32346-0.48465 0.01045-1.2779 0.61689-1.2985zm-5.3579 1.6778c0.8258-0.03366 1.4313 1.0141 0.94633 1.7002-0.43016 0.63268-1.5245 0.50161-1.8352-0.18294-0.33917-0.62849 0.17048-1.5116 0.88884-1.5172zm-8.7265 0.02532c0.57739-0.05895 1.0807 0.45136 1.122 1.0083 0.072548 0.53022-0.36823 1.022-0.88355 1.0856-0.51155 0.091382-1.0543-0.24492-1.1853-0.75061-0.18873-0.61154 0.29375-1.338 0.94685-1.3433zm4.6065 3.9375c0.58928 0.0467 0.92731 0.81456 0.6103 1.3116-0.30072 0.53188-1.1763 0.46396-1.4428-0.06615-0.32594-0.50871 0.11996-1.2495 0.71133-1.2449 0.0414-0.0036 0.0819-0.0036 0.12118-5.25e-4z" fill="#ffffff"/>
</svg>
