<?xml version="1.0" encoding="UTF-8"?>
<svg width="57.587" height="100" version="1.1" viewBox="0 0 15.236 26.458" xmlns="http://www.w3.org/2000/svg">
  <path d="m12.506-5.16e-5c-1.0293 0.49442-1.472 1.835-2.5571 2.1537-1.9544-0.039688-3.9131-0.027946-5.8692-0.046709-1.1367 2.267-2.872 4.1608-4.0793 6.386 1.5446 2.1403 2.68 4.5378 4.15 6.7263 2.2414 0.013 4.4827 0.026 6.7242 0.03894 0.86787 1.5851 1.7358 3.1704 2.6035 4.7555-0.89363 1.7207-1.7873 3.4413-2.681 5.162-1.9152-0.01116-3.8303-0.02219-5.7455-0.03327-0.75505-0.51591-1.8186-1.8333-2.4001-1.8254 0.36292 1.0212 0.93988 1.9644 1.4243 2.9251 0.45654 0.37361 1.1023 0.09618 1.6545 0.18136 1.986 0.01152 3.9723 0.02306 5.9585 0.03449 1.1772-2.1801 2.6605-4.2056 3.5479-6.5341-1.0056-2.0616-2.0515-4.103-3.0729-6.1567-0.13609-0.80284 0.44097-2.5666-0.13232-2.7775-0.73114 0.70718-1.0814 2.1016-2.2086 2.2341-1.6392-0.0095-3.2785-0.01896-4.9175-0.02843-0.93021-1.6182-1.8604-3.2363-2.7907-4.8547 0.96335-1.7259 1.9267-3.4522 2.8901-5.1781 1.9561 0.011321 3.9121 0.022662 5.8683 0.033973 0.94943 1.5578 1.8988 3.1152 2.8483 4.6729-0.26047 0.61027-1.3392 1.8534-1.0077 2.0883 0.74242-0.69001 2.8028-1.4062 1.8361-2.6342-0.83496-1.5881-1.6696-3.1762-2.5046-4.7644 0.06555-0.79786 1.1367-1.8864 0.46097-2.5592z" fill="#ffffff"/>
</svg>
