<?xml version="1.0" encoding="UTF-8" standalone="no"?>
<!-- Created with Inkscape (http://www.inkscape.org/) -->

<svg
   width="210mm"
   height="297mm"
   viewBox="0 0 210 297"
   version="1.1"
   id="svg1"
   xml:space="preserve"
   inkscape:version="1.3.2 (091e20ef0f, 2023-11-25)"
   sodipodi:docname="gimbalabs-page-icons.svg"
   xmlns:inkscape="http://www.inkscape.org/namespaces/inkscape"
   xmlns:sodipodi="http://sodipodi.sourceforge.net/DTD/sodipodi-0.dtd"
   xmlns="http://www.w3.org/2000/svg"
   xmlns:svg="http://www.w3.org/2000/svg"><sodipodi:namedview
     id="namedview1"
     pagecolor="#505050"
     bordercolor="#ffffff"
     borderopacity="1"
     inkscape:showpageshadow="0"
     inkscape:pageopacity="0"
     inkscape:pagecheckerboard="1"
     inkscape:deskcolor="#d1d1d1"
     inkscape:document-units="mm"
     inkscape:zoom="1.1439496"
     inkscape:cx="215.04444"
     inkscape:cy="372.39404"
     inkscape:window-width="2304"
     inkscape:window-height="1296"
     inkscape:window-x="0"
     inkscape:window-y="0"
     inkscape:window-maximized="1"
     inkscape:current-layer="layer1" /><defs
     id="defs1"><rect
       x="542.72688"
       y="306.96742"
       width="0"
       height="24.380953"
       id="rect60" /></defs><g
     inkscape:label="Layer 1"
     inkscape:groupmode="layer"
     id="layer1"><text
       xml:space="preserve"
       style="font-size:6.35px;line-height:1.25;font-family:'JetBrains Mono';-inkscape-font-specification:'JetBrains Mono';letter-spacing:0px;word-spacing:0px;stroke-width:0.264583"
       x="21.947359"
       y="23.301783"
       id="text5"><tspan
         sodipodi:role="line"
         id="tspan5"
         style="stroke-width:0.264583"
         x="21.947359"
         y="23.301783" /></text><path
       id="path10"
       style="font-size:14.1111px;line-height:1.25;font-family:Cabin;-inkscape-font-specification:Cabin;letter-spacing:0px;word-spacing:0px;stroke-width:0.264583"
       d="m 145.01017,200.55214 h -8.2131 v -6.44922 h 8.2131 z m -1.76389,-10.58333 v 1.18511 h -4.68532 v -1.18511 h -1.18512 v 1.18511 h -0.57877 q -0.4961,0 -0.84061,0.34451 -0.34451,0.34451 -0.34451,0.84061 v 8.2131 q 0,0.49609 0.34451,0.8406 0.34451,0.34451 0.84061,0.34451 h 8.2131 q 0.4961,0 0.84061,-0.3514 0.3445,-0.34451 0.3445,-0.83371 v -8.2131 q 0,-0.4961 -0.3445,-0.84061 -0.34451,-0.34451 -0.84061,-0.34451 h -0.57877 v -1.18511 z m 0.60634,6.47678 h -2.949 v 2.949 h 2.949 z" /><path
       id="path11"
       style="font-size:14.1111px;line-height:1.25;font-family:Cabin;-inkscape-font-specification:Cabin;letter-spacing:0px;word-spacing:0px;stroke-width:0.264583"
       d="m 155.38399,201.12865 q -1.43934,0 -2.56823,-0.62794 -1.12183,-0.635 -1.77094,-1.78505 -0.64206,-1.15711 -0.64206,-2.72345 0,-1.56633 0.64912,-2.71638 0.65616,-1.15711 1.79211,-1.78506 1.143,-0.635 2.59644,-0.635 0.75494,0 1.43933,0.16228 0.68439,0.16228 1.19945,0.41628 l -0.14111,1.24177 q -0.52917,-0.254 -1.16417,-0.43038 -0.635,-0.17639 -1.34761,-0.17639 -1.16417,0 -1.95439,0.52916 -0.79022,0.52211 -1.19944,1.41111 -0.40217,0.889 -0.40217,1.98261 0,1.09361 0.39511,1.98261 0.40217,0.889 1.18534,1.41817 0.79022,0.52211 1.94733,0.52211 0.73377,0 1.35466,-0.15522 0.62795,-0.16228 1.18534,-0.43745 l 0.14111,1.24178 q -0.52917,0.23989 -1.19239,0.40217 -0.66322,0.16227 -1.50283,0.16227 z m 5.63032,-0.0564 q -0.64206,0 -1.12184,-0.26106 -0.47977,-0.26105 -0.74788,-0.71261 -0.26106,-0.45155 -0.26106,-1.03011 0,-0.58561 0.254,-1.00189 0.26106,-0.42333 0.69144,-0.69849 0.43745,-0.28223 0.97367,-0.4445 0.53622,-0.16934 1.10772,-0.23989 0.57856,-0.0776 1.10772,-0.0847 0,-0.98778 -0.38805,-1.29117 -0.38806,-0.30338 -1.12183,-0.30338 -0.38806,0 -0.83256,0.11994 -0.43744,0.11994 -0.98778,0.50094 l -0.18344,-1.03011 q 0.41628,-0.3175 1.03717,-0.51505 0.62088,-0.20461 1.30527,-0.20461 0.87489,0 1.41111,0.31044 0.53623,0.30339 0.78317,1.03011 0.24695,0.72672 0.24695,1.97556 v 1.41111 q 0,0.49388 0.0423,0.81844 0.0494,0.3175 0.21166,0.47978 0.16934,0.15522 0.53622,0.15522 h 0.127 l -0.19755,1.016 h -0.0988 q -0.61383,0 -0.9525,-0.11995 -0.33161,-0.11994 -0.508,-0.34572 -0.17639,-0.22577 -0.3175,-0.55033 -0.38806,0.45156 -0.91722,0.73378 -0.52917,0.28222 -1.19945,0.28222 z m 0.23989,-1.016 q 0.508,0 0.98072,-0.254 0.47977,-0.254 0.78316,-0.67733 v -1.651 q -1.00894,0.0353 -1.63688,0.19755 -0.62089,0.16228 -0.91017,0.48684 -0.28928,0.32455 -0.28928,0.83961 0,0.55739 0.29634,0.81139 0.30338,0.24694 0.77611,0.24694 z m 6.70276,1.016 q -0.67027,0 -1.06538,-0.23989 -0.38806,-0.24694 -0.55739,-0.62794 -0.16934,-0.381 -0.16934,-0.79728 v -9.05933 h 1.27 v 8.32555 q 0,0.59267 0.0776,0.889 0.0776,0.29633 0.31045,0.39511 0.23989,0.0988 0.72672,0.0988 l -0.18344,1.016 z m 4.7978,0 q -1.22061,0 -2.05317,-0.50095 -0.83255,-0.50094 -1.26294,-1.32644 -0.42334,-0.83255 -0.42334,-1.82739 0,-0.96661 0.39511,-1.77094 0.40217,-0.80433 1.15711,-1.28411 0.762,-0.48683 1.83445,-0.48683 0.86077,0 1.53105,0.34572 0.67734,0.33867 1.05834,0.99483 0.38805,0.64911 0.38805,1.58045 0,0.14816 -0.0141,0.32455 -0.007,0.16933 -0.0423,0.35278 h -5.00944 q 0.0917,0.95955 0.45861,1.49578 0.36689,0.53622 0.92428,0.75494 0.55739,0.21872 1.21355,0.21872 0.47978,0 1.00189,-0.0988 0.52211,-0.0988 0.98778,-0.31044 l 0.16933,1.00189 q -0.40216,0.17639 -0.98072,0.35983 -0.57856,0.17639 -1.3335,0.17639 z m -2.32834,-4.47322 h 3.64067 q 0,-0.48683 -0.18345,-0.84667 -0.18344,-0.35983 -0.55739,-0.55033 -0.37394,-0.19755 -0.95249,-0.19755 -0.84667,0 -1.30528,0.42333 -0.45156,0.41628 -0.64206,1.17122 z m 6.2371,4.33211 v -6.91444 h 0.98778 l 0.254,1.32644 -0.49389,-0.21166 q 0.6985,-0.77611 1.36172,-1.016 0.67028,-0.23989 1.30528,-0.23989 1.51694,0 2.16606,0.87489 0.65616,0.87488 0.65616,2.37066 v 3.81 h -1.27 v -3.81 q 0,-1.10066 -0.40922,-1.60866 -0.40922,-0.508 -1.397,-0.508 -0.6985,0 -1.28411,0.31044 -0.57856,0.30339 -0.762,0.97367 l 0.15522,-0.77611 v 5.41866 z m 10.62567,0.14111 q -0.88195,0 -1.59456,-0.47978 -0.71261,-0.47978 -1.13595,-1.29116 -0.41627,-0.81139 -0.41627,-1.81328 0,-0.9525 0.381,-1.778 0.38805,-0.8255 1.09361,-1.32644 0.70555,-0.508 1.67217,-0.508 0.69144,0 1.33349,0.30339 0.64911,0.29633 1.05128,0.99483 l -0.26811,0.18344 v -5.00944 h 1.27 v 10.58333 h -1.12889 l -0.23989,-1.46756 0.32456,0.22578 q -0.30339,0.68439 -0.9525,1.03717 -0.64911,0.34572 -1.38994,0.34572 z m 0.22577,-1.12889 q 0.47978,0 0.94545,-0.24694 0.47272,-0.24695 0.77611,-0.78317 0.31044,-0.54328 0.31044,-1.42522 0,-0.81844 -0.31044,-1.36878 -0.30339,-0.55739 -0.77611,-0.83255 -0.46567,-0.28222 -0.94545,-0.28222 -0.64911,0 -1.11477,0.32455 -0.46567,0.32456 -0.71261,0.889 -0.24695,0.55739 -0.24695,1.27 0,0.67028 0.24695,1.22767 0.24694,0.55738 0.71261,0.89605 0.46566,0.33161 1.11477,0.33161 z m 6.47701,1.12889 q -0.64206,0 -1.12184,-0.26106 -0.47977,-0.26105 -0.74789,-0.71261 -0.26105,-0.45155 -0.26105,-1.03011 0,-0.58561 0.254,-1.00189 0.26105,-0.42333 0.69144,-0.69849 0.43745,-0.28223 0.97367,-0.4445 0.53622,-0.16934 1.10772,-0.23989 0.57856,-0.0776 1.10772,-0.0847 0,-0.98778 -0.38805,-1.29117 -0.38806,-0.30338 -1.12184,-0.30338 -0.38805,0 -0.83255,0.11994 -0.43745,0.11994 -0.98778,0.50094 l -0.18344,-1.03011 q 0.41627,-0.3175 1.03716,-0.51505 0.62089,-0.20461 1.30528,-0.20461 0.87489,0 1.41111,0.31044 0.53622,0.30339 0.78317,1.03011 0.24694,0.72672 0.24694,1.97556 v 1.41111 q 0,0.49388 0.0423,0.81844 0.0494,0.3175 0.21167,0.47978 0.16933,0.15522 0.53622,0.15522 h 0.127 l -0.19755,1.016 h -0.0988 q -0.61384,0 -0.9525,-0.11995 -0.33161,-0.11994 -0.508,-0.34572 -0.17639,-0.22577 -0.3175,-0.55033 -0.38806,0.45156 -0.91723,0.73378 -0.52916,0.28222 -1.19944,0.28222 z m 0.23988,-1.016 q 0.508,0 0.98073,-0.254 0.47978,-0.254 0.78316,-0.67733 v -1.651 q -1.00894,0.0353 -1.63689,0.19755 -0.62088,0.16228 -0.91016,0.48684 -0.28928,0.32455 -0.28928,0.83961 0,0.55739 0.29633,0.81139 0.30339,0.24694 0.77611,0.24694 z m 4.92478,0.87489 v -6.91444 h 1.04422 l 0.15522,1.143 q 0.52917,-0.65617 1.00895,-0.96661 0.48683,-0.3175 1.03716,-0.3175 0.17639,0 0.32456,0.0423 l -0.127,1.397 q -0.0917,-0.0212 -0.19756,-0.0282 -0.0988,-0.0141 -0.22578,-0.0141 -0.55033,0 -1.01599,0.24694 -0.45862,0.23989 -0.64912,0.52917 v 4.88244 z" /><path
       id="path32"
       style="font-size:14.1111px;line-height:1.25;font-family:Cabin;-inkscape-font-specification:Cabin;letter-spacing:0px;word-spacing:0px;stroke-width:0.264583"
       d="m 103.44929,200.55213 v -9.87777 h 3.11855 q 1.32645,0 2.08139,0.59972 0.75494,0.59267 0.75494,1.81328 0,0.8255 -0.35983,1.45344 -0.35983,0.62795 -1.0795,0.81845 l 0.19756,-0.22578 q 1.03011,0.16933 1.59455,0.8255 0.56445,0.64911 0.56445,1.77094 0,1.29822 -0.83962,2.06022 -0.83255,0.762 -2.30716,0.762 z m 1.34055,-1.21355 h 2.27189 q 0.81844,0 1.30528,-0.40923 0.48683,-0.40922 0.48683,-1.24177 0,-0.93134 -0.50094,-1.31234 -0.49389,-0.381 -1.29117,-0.381 h -2.27189 z m 0,-4.55789 h 1.60867 q 0.71967,0 1.17122,-0.28928 0.45156,-0.28927 0.45156,-1.16416 0,-0.86784 -0.45156,-1.15711 -0.45155,-0.29634 -1.17122,-0.29634 h -1.60867 z m 8.509,5.91255 q -0.67028,0 -1.06539,-0.23989 -0.38806,-0.24694 -0.55739,-0.62794 -0.16933,-0.381 -0.16933,-0.79728 v -9.05932 h 1.26999 v 8.32554 q 0,0.59267 0.0776,0.889 0.0776,0.29634 0.31045,0.39511 0.23989,0.0988 0.72672,0.0988 l -0.18344,1.016 z m 4.50145,0 q -1.08655,0 -1.85561,-0.47978 -0.762,-0.48683 -1.17122,-1.29822 -0.40217,-0.81844 -0.40217,-1.82033 0,-1.00189 0.40217,-1.81328 0.40922,-0.81844 1.17122,-1.29822 0.76906,-0.48683 1.85561,-0.48683 1.0795,0 1.84856,0.48683 0.76905,0.47978 1.17122,1.29822 0.40922,0.81139 0.40922,1.81328 0,1.00189 -0.40922,1.82033 -0.40217,0.81139 -1.17122,1.29822 -0.76906,0.47978 -1.84856,0.47978 z m 0,-1.12889 q 1.03011,0 1.58045,-0.64911 0.55033,-0.65616 0.55033,-1.82033 0,-1.16417 -0.55033,-1.81328 -0.55034,-0.65616 -1.58045,-0.65616 -1.02305,0 -1.58044,0.65616 -0.55034,0.64911 -0.55034,1.81328 0,1.16417 0.55034,1.82033 0.55739,0.64911 1.58044,0.64911 z m 7.53532,4.51556 q -0.94544,0 -1.69333,-0.23284 -0.74083,-0.23283 -1.17122,-0.69144 -0.42333,-0.45861 -0.42333,-1.13595 0,-0.56444 0.31749,-0.97366 0.32456,-0.40217 0.88195,-0.64911 -0.33161,-0.16228 -0.508,-0.381 -0.16933,-0.22578 -0.16933,-0.49389 0,-0.3175 0.1905,-0.5715 0.19755,-0.26106 0.62794,-0.43039 -0.57856,-0.35983 -0.889,-0.96661 -0.31044,-0.61383 -0.31044,-1.36172 0,-0.75494 0.33866,-1.36172 0.33867,-0.61383 0.97367,-0.97367 0.64205,-0.35983 1.53811,-0.35983 0.47978,0 0.90311,0.14111 0.43039,0.14111 0.79022,0.39511 0.3175,-0.18344 0.74789,-0.30339 0.43745,-0.11994 0.97367,-0.11994 0.0353,0 0.0564,0 0.0282,0 0.0564,0 l -0.15522,0.84666 q -0.0847,0 -0.16228,0 -0.0776,0 -0.16228,0 -0.0706,0 -0.32456,0.0212 -0.254,0.0212 -0.46566,0.0776 0.28928,0.33867 0.4445,0.762 0.16228,0.41628 0.16228,0.87489 0,0.79022 -0.34573,1.41817 -0.33866,0.62088 -0.98072,0.98777 -0.64206,0.35984 -1.53811,0.35984 -0.254,0 -0.48683,-0.0282 -0.23284,-0.0353 -0.4445,-0.0988 -0.32456,0.10583 -0.32456,0.36688 0,0.15523 0.18345,0.27517 0.18344,0.11289 0.59266,0.17639 l 1.84856,0.29633 q 1.12183,0.17639 1.72861,0.64911 0.61383,0.47273 0.61383,1.34056 0,0.71966 -0.42333,1.19239 -0.41628,0.47977 -1.18533,0.71261 -0.76906,0.23989 -1.80623,0.23989 z m 0.11289,-1.12889 q 0.97367,0 1.49578,-0.254 0.52211,-0.24695 0.52211,-0.73378 0,-0.381 -0.33161,-0.59972 -0.32456,-0.21872 -0.93839,-0.33161 l -1.9685,-0.33161 q -0.38806,0.16933 -0.67733,0.45155 -0.28928,0.28928 -0.28928,0.67028 0,0.59267 0.59267,0.86078 0.59972,0.26811 1.59455,0.26811 z m -0.40922,-5.00944 q 0.80433,0 1.22766,-0.47978 0.42334,-0.48683 0.42334,-1.25589 0,-0.74083 -0.42334,-1.21355 -0.42333,-0.47978 -1.22766,-0.47978 -0.80433,0 -1.22061,0.47978 -0.41628,0.47272 -0.41628,1.21355 0,0.76906 0.41628,1.25589 0.41628,0.47978 1.22061,0.47978 z" /><path
       id="path12"
       style="font-size:14.1111px;line-height:1.25;font-family:Cabin;-inkscape-font-specification:Cabin;letter-spacing:0px;word-spacing:0px;stroke-width:0.264583"
       d="m 97.75252,194.89529 h -9.42578 v -1.76389 h 9.42578 z m 0,2.34266 h -4.13411 v -1.18511 h 4.13411 z m 0,2.34266 h -4.13411 v -1.15755 h 4.13411 z m -5.29166,0 h -4.13412 v -3.52777 h 4.13412 z m 5.49148,-8.41291 -1.00597,-0.9853 -0.95773,0.9853 -0.9853,-0.9853 -0.97841,0.9853 -0.9853,-0.9853 -0.98529,0.9853 -0.97841,-0.9853 -0.9853,0.9853 -0.95774,-0.9853 -1.00596,0.9853 -0.95774,-0.9853 v 9.39821 q 0,0.4961 0.34451,0.84061 0.34451,0.34451 0.81304,0.34451 h 9.42578 q 0.46854,0 0.81305,-0.34451 0.3445,-0.3514 0.3445,-0.84061 v -9.39821 z" /><path
       id="path16"
       style="font-size:14.1111px;line-height:1.25;font-family:Cabin;-inkscape-font-specification:Cabin;letter-spacing:0px;word-spacing:0px;stroke-width:0.264583"
       d="m 27.127783,201.11487 q -0.613833,0 -1.227666,-0.0917 -0.613833,-0.0917 -1.135943,-0.23284 -0.522111,-0.14816 -0.867833,-0.31044 l 0.183444,-1.42522 q 0.381,0.18344 0.917222,0.381 0.543277,0.19755 1.171221,0.33161 0.627944,0.13405 1.269999,0.13405 0.952499,0 1.509888,-0.34572 0.564444,-0.35278 0.564444,-1.09361 0,-0.55739 -0.282222,-0.91017 -0.282222,-0.35983 -0.853722,-0.61383 -0.564444,-0.254 -1.418165,-0.508 -0.811389,-0.23989 -1.495777,-0.56444 -0.684388,-0.33161 -1.100666,-0.88195 -0.409222,-0.55738 -0.409222,-1.47461 0,-0.78316 0.402167,-1.38288 0.409222,-0.60678 1.192388,-0.94545 0.790221,-0.33866 1.93322,-0.33866 0.973666,0 1.785055,0.21166 0.818443,0.21167 1.34761,0.46567 l -0.141111,1.42522 q -0.804333,-0.47978 -1.53811,-0.68439 -0.726722,-0.20461 -1.509888,-0.20461 -0.867833,0 -1.439332,0.32456 -0.564444,0.32455 -0.564444,1.05833 0,0.49389 0.254,0.81139 0.253999,0.31044 0.754943,0.53622 0.500944,0.21872 1.248833,0.4445 1.03011,0.31044 1.770943,0.71261 0.740833,0.39511 1.135943,0.98072 0.395111,0.57856 0.395111,1.43933 0,0.635 -0.239888,1.143 -0.239889,0.508 -0.719667,0.86783 -0.479777,0.35984 -1.206499,0.55034 -0.719666,0.1905 -1.686276,0.1905 z m 8.170321,-0.0565 q -1.086555,0 -1.85561,-0.47977 -0.761999,-0.48684 -1.171221,-1.29823 -0.402167,-0.81844 -0.402167,-1.82033 0,-1.00189 0.402167,-1.81327 0.409222,-0.81845 1.171221,-1.29822 0.769055,-0.48684 1.85561,-0.48684 1.079499,0 1.848554,0.48684 0.769055,0.47977 1.171221,1.29822 0.409222,0.81138 0.409222,1.81327 0,1.00189 -0.409222,1.82033 -0.402166,0.81139 -1.171221,1.29823 -0.769055,0.47977 -1.848554,0.47977 z m 0,-1.12888 q 1.03011,0 1.580443,-0.64912 0.550333,-0.65616 0.550333,-1.82033 0,-1.16416 -0.550333,-1.81327 -0.550333,-0.65617 -1.580443,-0.65617 -1.023055,0 -1.580444,0.65617 -0.550333,0.64911 -0.550333,1.81327 0,1.16417 0.550333,1.82033 0.557389,0.64912 1.580444,0.64912 z m 6.519318,1.12888 q -0.670277,0 -1.065388,-0.23989 -0.388055,-0.24694 -0.557389,-0.62794 -0.169333,-0.381 -0.169333,-0.79728 v -9.05932 h 1.269999 v 8.32555 q 0,0.59266 0.07761,0.889 0.07761,0.29633 0.310444,0.39511 0.239889,0.0988 0.726722,0.0988 l -0.183444,1.016 z m 4.035776,0 q -0.811388,0 -1.382888,-0.32455 -0.571499,-0.33161 -0.874888,-1.00189 -0.296333,-0.67028 -0.296333,-1.70744 v -4.02167 h 1.269999 v 3.66889 q 0,1.10067 0.373944,1.67922 0.381,0.57856 1.234721,0.57856 0.585611,0 1.086555,-0.28223 0.500944,-0.28222 0.691444,-0.90311 l -0.183444,0.69145 v -5.43278 h 1.269999 v 6.91444 h -1.128888 l -0.254,-1.35466 0.338666,0.22577 q -0.345722,0.64206 -0.846666,0.95956 -0.493888,0.31044 -1.298221,0.31044 z m 7.295441,0 q -0.656166,0 -1.051277,-0.23989 -0.395111,-0.23988 -0.578555,-0.61383 -0.176389,-0.381 -0.176389,-0.79728 v -4.41677 h -1.185332 l 0.112888,-0.98778 h 1.072444 v -1.70744 l 1.269999,-0.127 v 1.83444 h 1.820332 v 0.98778 h -1.820332 v 3.64066 q 0,0.66323 0.07761,0.95956 0.07761,0.29633 0.381,0.37394 0.310444,0.0776 0.994832,0.0776 h 0.324556 l -0.09878,1.016 z m 2.370664,-0.14111 v -6.91444 h 1.269999 v 6.91444 z m 0,-8.46666 v -1.41111 h 1.269999 v 1.41111 z m 6.011325,8.60777 q -1.086554,0 -1.855609,-0.47977 -0.762,-0.48684 -1.171222,-1.29823 -0.402166,-0.81844 -0.402166,-1.82033 0,-1.00189 0.402166,-1.81327 0.409222,-0.81845 1.171222,-1.29822 0.769055,-0.48684 1.855609,-0.48684 1.0795,0 1.848555,0.48684 0.769055,0.47977 1.171221,1.29822 0.409222,0.81138 0.409222,1.81327 0,1.00189 -0.409222,1.82033 -0.402166,0.81139 -1.171221,1.29823 -0.769055,0.47977 -1.848555,0.47977 z m 0,-1.12888 q 1.030111,0 1.580444,-0.64912 0.550333,-0.65616 0.550333,-1.82033 0,-1.16416 -0.550333,-1.81327 -0.550333,-0.65617 -1.580444,-0.65617 -1.023054,0 -1.580443,0.65617 -0.550333,0.64911 -0.550333,1.81327 0,1.16417 0.550333,1.82033 0.557389,0.64912 1.580443,0.64912 z m 4.741322,0.98777 v -6.91444 h 0.987777 l 0.254,1.32645 -0.493889,-0.21167 q 0.6985,-0.77611 1.361721,-1.016 0.670278,-0.23989 1.305277,-0.23989 1.516943,0 2.166054,0.87489 0.656166,0.87489 0.656166,2.37067 v 3.80999 h -1.269999 v -3.80999 q 0,-1.10067 -0.409222,-1.60867 -0.409222,-0.508 -1.396999,-0.508 -0.698499,0 -1.28411,0.31044 -0.578555,0.30339 -0.761999,0.97367 l 0.155222,-0.77611 v 5.41866 z m 9.849546,0.14111 q -0.917221,0 -1.523998,-0.21872 -0.599722,-0.21872 -0.846666,-0.38805 l 0.155222,-1.22767 q 0.225777,0.19756 0.797277,0.45156 0.571499,0.254 1.361721,0.254 0.670277,0 1.023055,-0.22578 0.359833,-0.22578 0.359833,-0.635 0,-0.35983 -0.232833,-0.57856 -0.225778,-0.22577 -0.550333,-0.35277 -0.3175,-0.13406 -0.599722,-0.21167 -0.472722,-0.127 -0.980721,-0.3175 -0.500945,-0.19756 -0.846666,-0.58561 -0.345722,-0.38806 -0.345722,-1.08656 0,-0.52916 0.253999,-1.00188 0.254,-0.47978 0.8255,-0.77611 0.571499,-0.29634 1.516943,-0.29634 0.691444,0 1.121832,0.14817 0.437445,0.14111 0.754944,0.30339 l -0.155222,1.15711 q -0.303388,-0.254 -0.705555,-0.43039 -0.402166,-0.17639 -0.987777,-0.17639 -0.592666,0 -0.96661,0.22578 -0.373944,0.21872 -0.373944,0.70555 0,0.48684 0.39511,0.69145 0.402167,0.20461 1.213555,0.45155 0.254,0.0706 0.585611,0.20461 0.338666,0.13406 0.656166,0.35984 0.3175,0.22577 0.522111,0.59266 0.211666,0.35984 0.211666,0.90311 0,0.45861 -0.218722,0.93839 -0.218722,0.47272 -0.790222,0.79728 -0.571499,0.32455 -1.629832,0.32455 z" /><path
       id="path13"
       style="font-size:14.1111px;line-height:1.25;font-family:Cabin;-inkscape-font-specification:Cabin;letter-spacing:0px;word-spacing:0px;stroke-width:0.264583"
       d="m 13.82377,189.96881 q -1.12999,0 -2.067056,0.55121 -0.937065,0.54433 -1.48828,1.48828 -0.551215,0.93707 -0.551215,2.06706 0,1.01286 0.468533,1.90858 0.468533,0.89572 1.295355,1.44694 v 1.35736 q 0,0.22738 0.165364,0.40653 0.165365,0.17225 0.413412,0.17225 h 3.527775 q 0.254937,0 0.413411,-0.17225 0.165364,-0.17915 0.165364,-0.40653 v -1.35736 q 0.833713,-0.55122 1.295355,-1.44694 0.468533,-0.89572 0.468533,-1.90858 0,-1.12999 -0.551215,-2.06706 -0.544325,-0.94395 -1.48828,-1.48828 -0.937065,-0.55121 -2.067056,-0.55121 z m 1.185112,6.80061 v 1.41249 h -0.606336 v -2.69406 l 1.019747,-1.00597 q 0.172255,-0.17226 0.165365,-0.41341 0,-0.24805 -0.165365,-0.40652 -0.158474,-0.16537 -0.413411,-0.16537 -0.248047,0 -0.406521,0.16537 l -0.778591,0.76481 -0.771701,-0.76481 q -0.172254,-0.17226 -0.420301,-0.16537 -0.241156,0 -0.406521,0.16537 -0.165364,0.15847 -0.165364,0.41341 0,0.25493 0.172254,0.40652 l 1.012858,1.00597 v 2.69406 h -0.606337 v -1.41249 q -0.778591,-0.3514 -1.274684,-1.08176 -0.489203,-0.73725 -0.489203,-1.6123 0,-0.80615 0.39963,-1.4745 0.406521,-0.67524 1.074869,-1.07487 0.675239,-0.39963 1.4745,-0.39963 0.806152,0 1.4745,0.39963 0.675238,0.39963 1.074869,1.07487 0.399631,0.66835 0.399631,1.4745 0,0.87505 -0.496094,1.6123 -0.489203,0.73036 -1.267794,1.08176 z m -2.948999,3.78271 h 3.527775 v 0.57878 q 0,0.25493 -0.179145,0.41341 -0.172255,0.16536 -0.399631,0.16536 h -2.370224 q -0.227376,0 -0.406521,-0.16536 -0.172254,-0.15848 -0.172254,-0.41341 z" /><path
       id="path55"
       style="font-size:14.1111px;line-height:1.25;font-family:Cabin;-inkscape-font-specification:Cabin;letter-spacing:0px;word-spacing:0px;stroke-width:0.264583"
       d="m 169.58636,132.16066 c 0.26409,0.85029 -0.74022,0.43218 -1.2293,0.5293 -1.14471,-0.19717 -2.43493,0.54887 -2.50703,1.78125 -0.007,5.98663 -0.0349,11.9773 0.0139,17.96231 0.12686,1.18031 1.38049,1.8695 2.48807,1.68027 5.7475,-0.0167 11.49808,0.0333 17.24367,-0.0249 1.16615,-0.14862 1.85238,-1.38426 1.66844,-2.48686 -0.0167,-5.7475 0.0333,-11.49808 -0.0249,-17.24366 -0.13799,-1.17674 -1.38421,-1.84925 -2.48687,-1.66845 -0.47049,-0.10829 -1.48689,0.32934 -1.23632,-0.5 0,-0.67253 0,-1.34505 0,-2.01758 -0.47011,0.14956 -1.60591,-0.36658 -1.45899,0.4 0,0.70586 0,1.41172 0,2.11758 -3.67057,0 -7.34114,0 -11.01172,0 0,-0.83919 0,-1.67838 0,-2.51758 -0.4701,0.14956 -1.6059,-0.36658 -1.45898,0.4 0,0.52943 0,1.05886 0,1.58828 z m -1.75781,5.73633 c 5.99218,0 11.98437,0 17.97656,0 0,4.91927 0,9.83854 0,14.75781 -6.16862,0 -12.33724,0 -18.50586,0 0,-4.91927 0,-9.83854 0,-14.75781 0.17643,0 0.35286,0 0.5293,0 z m 9.25195,11.24024 c 1.73568,0 3.47135,0 5.20703,0 0,-1.73503 0,-3.47006 0,-5.20508 -1.73568,0 -3.47135,0 -5.20703,0 0,1.73502 0,3.47005 0,5.20508 z" /><path
       id="path56"
       style="font-size:14.1111px;line-height:1.25;font-family:Cabin;-inkscape-font-specification:Cabin;letter-spacing:0px;word-spacing:0px;stroke-width:0.264583"
       d="m 155.38399,169.37863 q -1.43934,0 -2.56823,-0.62794 -1.12183,-0.635 -1.77094,-1.78505 -0.64206,-1.15711 -0.64206,-2.72345 0,-1.56633 0.64912,-2.71638 0.65616,-1.15711 1.79211,-1.78506 1.143,-0.635 2.59644,-0.635 0.75494,0 1.43933,0.16228 0.68439,0.16228 1.19945,0.41628 l -0.14111,1.24177 q -0.52917,-0.254 -1.16417,-0.43038 -0.635,-0.17639 -1.34761,-0.17639 -1.16417,0 -1.95439,0.52916 -0.79022,0.52211 -1.19944,1.41111 -0.40217,0.889 -0.40217,1.98261 0,1.09361 0.39511,1.98261 0.40217,0.889 1.18534,1.41817 0.79022,0.52211 1.94733,0.52211 0.73377,0 1.35466,-0.15522 0.62795,-0.16228 1.18534,-0.43745 l 0.14111,1.24178 q -0.52917,0.23989 -1.19239,0.40217 -0.66322,0.16227 -1.50283,0.16227 z m 5.63032,-0.0564 q -0.64206,0 -1.12184,-0.26106 -0.47977,-0.26105 -0.74788,-0.71261 -0.26106,-0.45155 -0.26106,-1.03011 0,-0.58561 0.254,-1.00189 0.26106,-0.42333 0.69144,-0.69849 0.43745,-0.28223 0.97367,-0.4445 0.53622,-0.16934 1.10772,-0.23989 0.57856,-0.0776 1.10772,-0.0847 0,-0.98778 -0.38805,-1.29117 -0.38806,-0.30338 -1.12183,-0.30338 -0.38806,0 -0.83256,0.11994 -0.43744,0.11994 -0.98778,0.50094 l -0.18344,-1.03011 q 0.41628,-0.3175 1.03717,-0.51505 0.62088,-0.20461 1.30527,-0.20461 0.87489,0 1.41111,0.31044 0.53623,0.30339 0.78317,1.03011 0.24695,0.72672 0.24695,1.97556 v 1.41111 q 0,0.49388 0.0423,0.81844 0.0494,0.3175 0.21166,0.47978 0.16934,0.15522 0.53622,0.15522 h 0.127 l -0.19755,1.016 h -0.0988 q -0.61383,0 -0.9525,-0.11995 -0.33161,-0.11994 -0.508,-0.34572 -0.17639,-0.22577 -0.3175,-0.55033 -0.38806,0.45156 -0.91722,0.73378 -0.52917,0.28222 -1.19945,0.28222 z m 0.23989,-1.016 q 0.508,0 0.98072,-0.254 0.47977,-0.254 0.78316,-0.67733 v -1.651 q -1.00894,0.0353 -1.63688,0.19755 -0.62089,0.16228 -0.91017,0.48684 -0.28928,0.32455 -0.28928,0.83961 0,0.55739 0.29634,0.81139 0.30338,0.24694 0.77611,0.24694 z m 6.70276,1.016 q -0.67027,0 -1.06538,-0.23989 -0.38806,-0.24694 -0.55739,-0.62794 -0.16934,-0.381 -0.16934,-0.79728 v -9.05933 h 1.27 v 8.32555 q 0,0.59267 0.0776,0.889 0.0776,0.29633 0.31045,0.39511 0.23989,0.0988 0.72672,0.0988 l -0.18344,1.016 z m 4.7978,0 q -1.22061,0 -2.05317,-0.50095 -0.83255,-0.50094 -1.26294,-1.32644 -0.42334,-0.83255 -0.42334,-1.82739 0,-0.96661 0.39511,-1.77094 0.40217,-0.80433 1.15711,-1.28411 0.762,-0.48683 1.83445,-0.48683 0.86077,0 1.53105,0.34572 0.67734,0.33867 1.05834,0.99483 0.38805,0.64911 0.38805,1.58045 0,0.14816 -0.0141,0.32455 -0.007,0.16933 -0.0423,0.35278 h -5.00944 q 0.0917,0.95955 0.45861,1.49578 0.36689,0.53622 0.92428,0.75494 0.55739,0.21872 1.21355,0.21872 0.47978,0 1.00189,-0.0988 0.52211,-0.0988 0.98778,-0.31044 l 0.16933,1.00189 q -0.40216,0.17639 -0.98072,0.35983 -0.57856,0.17639 -1.3335,0.17639 z m -2.32834,-4.47322 h 3.64067 q 0,-0.48683 -0.18345,-0.84667 -0.18344,-0.35983 -0.55739,-0.55033 -0.37394,-0.19755 -0.95249,-0.19755 -0.84667,0 -1.30528,0.42333 -0.45156,0.41628 -0.64206,1.17122 z m 6.2371,4.33211 v -6.91444 h 0.98778 l 0.254,1.32644 -0.49389,-0.21166 q 0.6985,-0.77611 1.36172,-1.016 0.67028,-0.23989 1.30528,-0.23989 1.51694,0 2.16606,0.87489 0.65616,0.87488 0.65616,2.37066 v 3.81 h -1.27 v -3.81 q 0,-1.10066 -0.40922,-1.60866 -0.40922,-0.508 -1.397,-0.508 -0.6985,0 -1.28411,0.31044 -0.57856,0.30339 -0.762,0.97367 l 0.15522,-0.77611 v 5.41866 z m 10.62567,0.14111 q -0.88195,0 -1.59456,-0.47978 -0.71261,-0.47978 -1.13595,-1.29116 -0.41627,-0.81139 -0.41627,-1.81328 0,-0.9525 0.381,-1.778 0.38805,-0.8255 1.09361,-1.32644 0.70555,-0.508 1.67217,-0.508 0.69144,0 1.33349,0.30339 0.64911,0.29633 1.05128,0.99483 l -0.26811,0.18344 v -5.00944 h 1.27 v 10.58333 h -1.12889 l -0.23989,-1.46756 0.32456,0.22578 q -0.30339,0.68439 -0.9525,1.03717 -0.64911,0.34572 -1.38994,0.34572 z m 0.22577,-1.12889 q 0.47978,0 0.94545,-0.24694 0.47272,-0.24695 0.77611,-0.78317 0.31044,-0.54328 0.31044,-1.42522 0,-0.81844 -0.31044,-1.36878 -0.30339,-0.55739 -0.77611,-0.83255 -0.46567,-0.28222 -0.94545,-0.28222 -0.64911,0 -1.11477,0.32455 -0.46567,0.32456 -0.71261,0.889 -0.24695,0.55739 -0.24695,1.27 0,0.67028 0.24695,1.22767 0.24694,0.55738 0.71261,0.89605 0.46566,0.33161 1.11477,0.33161 z m 6.47701,1.12889 q -0.64206,0 -1.12184,-0.26106 -0.47977,-0.26105 -0.74789,-0.71261 -0.26105,-0.45155 -0.26105,-1.03011 0,-0.58561 0.254,-1.00189 0.26105,-0.42333 0.69144,-0.69849 0.43745,-0.28223 0.97367,-0.4445 0.53622,-0.16934 1.10772,-0.23989 0.57856,-0.0776 1.10772,-0.0847 0,-0.98778 -0.38805,-1.29117 -0.38806,-0.30338 -1.12184,-0.30338 -0.38805,0 -0.83255,0.11994 -0.43745,0.11994 -0.98778,0.50094 l -0.18344,-1.03011 q 0.41627,-0.3175 1.03716,-0.51505 0.62089,-0.20461 1.30528,-0.20461 0.87489,0 1.41111,0.31044 0.53622,0.30339 0.78317,1.03011 0.24694,0.72672 0.24694,1.97556 v 1.41111 q 0,0.49388 0.0423,0.81844 0.0494,0.3175 0.21167,0.47978 0.16933,0.15522 0.53622,0.15522 h 0.127 l -0.19755,1.016 h -0.0988 q -0.61384,0 -0.9525,-0.11995 -0.33161,-0.11994 -0.508,-0.34572 -0.17639,-0.22577 -0.3175,-0.55033 -0.38806,0.45156 -0.91723,0.73378 -0.52916,0.28222 -1.19944,0.28222 z m 0.23988,-1.016 q 0.508,0 0.98073,-0.254 0.47978,-0.254 0.78316,-0.67733 v -1.651 q -1.00894,0.0353 -1.63689,0.19755 -0.62088,0.16228 -0.91016,0.48684 -0.28928,0.32455 -0.28928,0.83961 0,0.55739 0.29633,0.81139 0.30339,0.24694 0.77611,0.24694 z m 4.92478,0.87489 v -6.91444 h 1.04422 l 0.15522,1.143 q 0.52917,-0.65617 1.00895,-0.96661 0.48683,-0.3175 1.03716,-0.3175 0.17639,0 0.32456,0.0423 l -0.127,1.397 q -0.0917,-0.0212 -0.19756,-0.0282 -0.0988,-0.0141 -0.22578,-0.0141 -0.55033,0 -1.01599,0.24694 -0.45862,0.23989 -0.64912,0.52917 v 4.88244 z" /><path
       id="path57"
       style="font-size:14.1111px;line-height:1.25;font-family:Cabin;-inkscape-font-specification:Cabin;letter-spacing:0px;word-spacing:0px;stroke-width:0.264583"
       d="m 103.44929,168.80211 v -9.87777 h 3.11855 q 1.32645,0 2.08139,0.59972 0.75494,0.59267 0.75494,1.81328 0,0.8255 -0.35983,1.45344 -0.35983,0.62795 -1.0795,0.81845 l 0.19756,-0.22578 q 1.03011,0.16933 1.59455,0.8255 0.56445,0.64911 0.56445,1.77094 0,1.29822 -0.83962,2.06022 -0.83255,0.762 -2.30716,0.762 z m 1.34055,-1.21355 h 2.27189 q 0.81844,0 1.30528,-0.40923 0.48683,-0.40922 0.48683,-1.24177 0,-0.93134 -0.50094,-1.31234 -0.49389,-0.381 -1.29117,-0.381 h -2.27189 z m 0,-4.55789 h 1.60867 q 0.71967,0 1.17122,-0.28928 0.45156,-0.28927 0.45156,-1.16416 0,-0.86784 -0.45156,-1.15711 -0.45155,-0.29634 -1.17122,-0.29634 h -1.60867 z m 8.509,5.91255 q -0.67028,0 -1.06539,-0.23989 -0.38806,-0.24694 -0.55739,-0.62794 -0.16933,-0.381 -0.16933,-0.79728 v -9.05932 h 1.26999 v 8.32554 q 0,0.59267 0.0776,0.889 0.0776,0.29634 0.31045,0.39511 0.23989,0.0988 0.72672,0.0988 l -0.18344,1.016 z m 4.50145,0 q -1.08655,0 -1.85561,-0.47978 -0.762,-0.48683 -1.17122,-1.29822 -0.40217,-0.81844 -0.40217,-1.82033 0,-1.00189 0.40217,-1.81328 0.40922,-0.81844 1.17122,-1.29822 0.76906,-0.48683 1.85561,-0.48683 1.0795,0 1.84856,0.48683 0.76905,0.47978 1.17122,1.29822 0.40922,0.81139 0.40922,1.81328 0,1.00189 -0.40922,1.82033 -0.40217,0.81139 -1.17122,1.29822 -0.76906,0.47978 -1.84856,0.47978 z m 0,-1.12889 q 1.03011,0 1.58045,-0.64911 0.55033,-0.65616 0.55033,-1.82033 0,-1.16417 -0.55033,-1.81328 -0.55034,-0.65616 -1.58045,-0.65616 -1.02305,0 -1.58044,0.65616 -0.55034,0.64911 -0.55034,1.81328 0,1.16417 0.55034,1.82033 0.55739,0.64911 1.58044,0.64911 z m 7.53532,4.51556 q -0.94544,0 -1.69333,-0.23284 -0.74083,-0.23283 -1.17122,-0.69144 -0.42333,-0.45861 -0.42333,-1.13595 0,-0.56444 0.31749,-0.97366 0.32456,-0.40217 0.88195,-0.64911 -0.33161,-0.16228 -0.508,-0.381 -0.16933,-0.22578 -0.16933,-0.49389 0,-0.3175 0.1905,-0.5715 0.19755,-0.26106 0.62794,-0.43039 -0.57856,-0.35983 -0.889,-0.96661 -0.31044,-0.61383 -0.31044,-1.36172 0,-0.75494 0.33866,-1.36172 0.33867,-0.61383 0.97367,-0.97367 0.64205,-0.35983 1.53811,-0.35983 0.47978,0 0.90311,0.14111 0.43039,0.14111 0.79022,0.39511 0.3175,-0.18344 0.74789,-0.30339 0.43745,-0.11994 0.97367,-0.11994 0.0353,0 0.0564,0 0.0282,0 0.0564,0 l -0.15522,0.84666 q -0.0847,0 -0.16228,0 -0.0776,0 -0.16228,0 -0.0706,0 -0.32456,0.0212 -0.254,0.0212 -0.46566,0.0776 0.28928,0.33867 0.4445,0.762 0.16228,0.41628 0.16228,0.87489 0,0.79022 -0.34573,1.41817 -0.33866,0.62088 -0.98072,0.98777 -0.64206,0.35984 -1.53811,0.35984 -0.254,0 -0.48683,-0.0282 -0.23284,-0.0353 -0.4445,-0.0988 -0.32456,0.10583 -0.32456,0.36688 0,0.15523 0.18345,0.27517 0.18344,0.11289 0.59266,0.17639 l 1.84856,0.29633 q 1.12183,0.17639 1.72861,0.64911 0.61383,0.47273 0.61383,1.34056 0,0.71966 -0.42333,1.19239 -0.41628,0.47977 -1.18533,0.71261 -0.76906,0.23989 -1.80623,0.23989 z m 0.11289,-1.12889 q 0.97367,0 1.49578,-0.254 0.52211,-0.24695 0.52211,-0.73378 0,-0.381 -0.33161,-0.59972 -0.32456,-0.21872 -0.93839,-0.33161 l -1.9685,-0.33161 q -0.38806,0.16933 -0.67733,0.45155 -0.28928,0.28928 -0.28928,0.67028 0,0.59267 0.59267,0.86078 0.59972,0.26811 1.59455,0.26811 z m -0.40922,-5.00944 q 0.80433,0 1.22766,-0.47978 0.42334,-0.48683 0.42334,-1.25589 0,-0.74083 -0.42334,-1.21355 -0.42333,-0.47978 -1.22766,-0.47978 -0.80433,0 -1.22061,0.47978 -0.41628,0.47272 -0.41628,1.21355 0,0.76906 0.41628,1.25589 0.41628,0.47978 1.22061,0.47978 z" /><path
       id="path58"
       style="font-size:14.1111px;line-height:1.25;font-family:Cabin;-inkscape-font-specification:Cabin;letter-spacing:0px;word-spacing:0px;stroke-width:0.264584"
       d="m 114.36493,131.86368 c -0.41783,0.78873 -0.8285,-0.21842 -1.24328,-0.49862 -0.42893,-0.32875 -0.85705,-1.06406 -1.28646,-1.15337 -0.67756,0.67699 -1.35553,1.35357 -2.03276,2.03089 -0.67966,-0.70118 -1.36072,-1.40099 -2.04102,-2.10156 -0.71432,0.69909 -1.42655,1.40031 -2.14257,2.09766 -0.49952,-0.51608 -1.00128,-1.02997 -1.50196,-1.54493 0.0164,6.34257 -0.0329,12.68815 0.0247,19.02884 0.13865,1.14647 1.34111,1.86142 2.43623,1.67429 6.6146,-0.0172 13.23265,0.0344 19.84511,-0.0257 1.15905,-0.1597 1.81232,-1.39814 1.63536,-2.48796 0,-6.06315 0,-12.12631 0,-18.18946 -0.50001,0.51497 -1.00065,1.02932 -1.5,1.54493 -0.71605,-0.69732 -1.42825,-1.39859 -2.14258,-2.09766 -0.68093,0.70058 -1.36302,1.40003 -2.04297,2.10156 -0.70283,-0.69885 -1.40222,-1.40116 -2.10351,-2.10156 -0.6933,0.69928 -1.38751,1.39766 -2.08008,2.09766 -0.69987,-0.69987 -1.39974,-1.39974 -2.09961,-2.09961 -0.57487,0.57487 -1.14974,1.14974 -1.72461,1.72461 z m -8.3125,3.27734 c 6.86654,0 13.73307,0 20.59961,0 0,1.60482 0,3.20963 0,4.81445 -7.04297,0 -14.08594,0 -21.12891,0 0,-1.60482 0,-3.20963 0,-4.81445 0.17643,0 0.35287,0 0.5293,0 z m 0,6.2207 c 3.11068,0 6.22135,0 9.33203,0 0,2.85677 0,5.71354 0,8.57031 -3.28711,0 -6.57422,0 -9.86133,0 0,-2.85677 0,-5.71354 0,-8.57031 0.17643,0 0.35287,0 0.5293,0 z m 11.26758,0 c 3.11067,0 6.22135,0 9.33203,0 0,1.19401 0,2.38802 0,3.58203 -3.28711,0 -6.57422,0 -9.86133,0 0,-1.19401 0,-2.38802 0,-3.58203 0.17643,0 0.35287,0 0.5293,0 z m 0,5.04688 c 3.11067,0 6.22135,0 9.33203,0 0,1.17448 0,2.34896 0,3.52343 -3.28711,0 -6.57422,1e-5 -9.86133,0 0,-1.17447 0,-2.34895 0,-3.52343 0.17643,0 0.35287,0 0.5293,0 z" /><path
       id="path59"
       style="font-size:14.1111px;line-height:1.25;font-family:Cabin;-inkscape-font-specification:Cabin;letter-spacing:0px;word-spacing:0px;stroke-width:0.264583"
       d="m 27.127783,169.36485 q -0.613833,0 -1.227666,-0.0917 -0.613833,-0.0917 -1.135943,-0.23284 -0.522111,-0.14816 -0.867833,-0.31044 l 0.183444,-1.42522 q 0.381,0.18344 0.917222,0.381 0.543277,0.19755 1.171221,0.33161 0.627944,0.13405 1.269999,0.13405 0.952499,0 1.509888,-0.34572 0.564444,-0.35278 0.564444,-1.09361 0,-0.55739 -0.282222,-0.91017 -0.282222,-0.35983 -0.853722,-0.61383 -0.564444,-0.254 -1.418165,-0.508 -0.811389,-0.23989 -1.495777,-0.56444 -0.684388,-0.33161 -1.100666,-0.88195 -0.409222,-0.55738 -0.409222,-1.47461 0,-0.78316 0.402167,-1.38288 0.409222,-0.60678 1.192388,-0.94545 0.790221,-0.33866 1.93322,-0.33866 0.973666,0 1.785055,0.21166 0.818443,0.21167 1.34761,0.46567 l -0.141111,1.42522 q -0.804333,-0.47978 -1.53811,-0.68439 -0.726722,-0.20461 -1.509888,-0.20461 -0.867833,0 -1.439332,0.32456 -0.564444,0.32455 -0.564444,1.05833 0,0.49389 0.254,0.81139 0.253999,0.31044 0.754943,0.53622 0.500944,0.21872 1.248833,0.4445 1.03011,0.31044 1.770943,0.71261 0.740833,0.39511 1.135943,0.98072 0.395111,0.57856 0.395111,1.43933 0,0.635 -0.239888,1.143 -0.239889,0.508 -0.719667,0.86783 -0.479777,0.35984 -1.206499,0.55034 -0.719666,0.1905 -1.686276,0.1905 z m 8.170321,-0.0565 q -1.086555,0 -1.85561,-0.47977 -0.761999,-0.48684 -1.171221,-1.29823 -0.402167,-0.81844 -0.402167,-1.82033 0,-1.00189 0.402167,-1.81327 0.409222,-0.81845 1.171221,-1.29822 0.769055,-0.48684 1.85561,-0.48684 1.079499,0 1.848554,0.48684 0.769055,0.47977 1.171221,1.29822 0.409222,0.81138 0.409222,1.81327 0,1.00189 -0.409222,1.82033 -0.402166,0.81139 -1.171221,1.29823 -0.769055,0.47977 -1.848554,0.47977 z m 0,-1.12888 q 1.03011,0 1.580443,-0.64912 0.550333,-0.65616 0.550333,-1.82033 0,-1.16416 -0.550333,-1.81327 -0.550333,-0.65617 -1.580443,-0.65617 -1.023055,0 -1.580444,0.65617 -0.550333,0.64911 -0.550333,1.81327 0,1.16417 0.550333,1.82033 0.557389,0.64912 1.580444,0.64912 z m 6.519318,1.12888 q -0.670277,0 -1.065388,-0.23989 -0.388055,-0.24694 -0.557389,-0.62794 -0.169333,-0.381 -0.169333,-0.79728 v -9.05932 h 1.269999 v 8.32555 q 0,0.59266 0.07761,0.889 0.07761,0.29633 0.310444,0.39511 0.239889,0.0988 0.726722,0.0988 l -0.183444,1.016 z m 4.035776,0 q -0.811388,0 -1.382888,-0.32455 -0.571499,-0.33161 -0.874888,-1.00189 -0.296333,-0.67028 -0.296333,-1.70744 v -4.02167 h 1.269999 v 3.66889 q 0,1.10067 0.373944,1.67922 0.381,0.57856 1.234721,0.57856 0.585611,0 1.086555,-0.28223 0.500944,-0.28222 0.691444,-0.90311 l -0.183444,0.69145 v -5.43278 h 1.269999 v 6.91444 h -1.128888 l -0.254,-1.35466 0.338666,0.22577 q -0.345722,0.64206 -0.846666,0.95956 -0.493888,0.31044 -1.298221,0.31044 z m 7.295441,0 q -0.656166,0 -1.051277,-0.23989 -0.395111,-0.23988 -0.578555,-0.61383 -0.176389,-0.381 -0.176389,-0.79728 v -4.41677 h -1.185332 l 0.112888,-0.98778 h 1.072444 v -1.70744 l 1.269999,-0.127 v 1.83444 h 1.820332 v 0.98778 h -1.820332 v 3.64066 q 0,0.66323 0.07761,0.95956 0.07761,0.29633 0.381,0.37394 0.310444,0.0776 0.994832,0.0776 h 0.324556 l -0.09878,1.016 z m 2.370664,-0.14111 v -6.91444 h 1.269999 v 6.91444 z m 0,-8.46666 v -1.41111 h 1.269999 v 1.41111 z m 6.011325,8.60777 q -1.086554,0 -1.855609,-0.47977 -0.762,-0.48684 -1.171222,-1.29823 -0.402166,-0.81844 -0.402166,-1.82033 0,-1.00189 0.402166,-1.81327 0.409222,-0.81845 1.171222,-1.29822 0.769055,-0.48684 1.855609,-0.48684 1.0795,0 1.848555,0.48684 0.769055,0.47977 1.171221,1.29822 0.409222,0.81138 0.409222,1.81327 0,1.00189 -0.409222,1.82033 -0.402166,0.81139 -1.171221,1.29823 -0.769055,0.47977 -1.848555,0.47977 z m 0,-1.12888 q 1.030111,0 1.580444,-0.64912 0.550333,-0.65616 0.550333,-1.82033 0,-1.16416 -0.550333,-1.81327 -0.550333,-0.65617 -1.580444,-0.65617 -1.023054,0 -1.580443,0.65617 -0.550333,0.64911 -0.550333,1.81327 0,1.16417 0.550333,1.82033 0.557389,0.64912 1.580443,0.64912 z m 4.741322,0.98777 v -6.91444 h 0.987777 l 0.254,1.32645 -0.493889,-0.21167 q 0.6985,-0.77611 1.361721,-1.016 0.670278,-0.23989 1.305277,-0.23989 1.516943,0 2.166054,0.87489 0.656166,0.87489 0.656166,2.37067 v 3.80999 h -1.269999 v -3.80999 q 0,-1.10067 -0.409222,-1.60867 -0.409222,-0.508 -1.396999,-0.508 -0.698499,0 -1.28411,0.31044 -0.578555,0.30339 -0.761999,0.97367 l 0.155222,-0.77611 v 5.41866 z m 9.849546,0.14111 q -0.917221,0 -1.523998,-0.21872 -0.599722,-0.21872 -0.846666,-0.38805 l 0.155222,-1.22767 q 0.225777,0.19756 0.797277,0.45156 0.571499,0.254 1.361721,0.254 0.670277,0 1.023055,-0.22578 0.359833,-0.22578 0.359833,-0.635 0,-0.35983 -0.232833,-0.57856 -0.225778,-0.22577 -0.550333,-0.35277 -0.3175,-0.13406 -0.599722,-0.21167 -0.472722,-0.127 -0.980721,-0.3175 -0.500945,-0.19756 -0.846666,-0.58561 -0.345722,-0.38806 -0.345722,-1.08656 0,-0.52916 0.253999,-1.00188 0.254,-0.47978 0.8255,-0.77611 0.571499,-0.29634 1.516943,-0.29634 0.691444,0 1.121832,0.14817 0.437445,0.14111 0.754944,0.30339 l -0.155222,1.15711 q -0.303388,-0.254 -0.705555,-0.43039 -0.402166,-0.17639 -0.987777,-0.17639 -0.592666,0 -0.96661,0.22578 -0.373944,0.21872 -0.373944,0.70555 0,0.48684 0.39511,0.69145 0.402167,0.20461 1.213555,0.45155 0.254,0.0706 0.585611,0.20461 0.338666,0.13406 0.656166,0.35984 0.3175,0.22577 0.522111,0.59266 0.211666,0.35984 0.211666,0.90311 0,0.45861 -0.218722,0.93839 -0.218722,0.47272 -0.790222,0.79728 -0.571499,0.32455 -1.629832,0.32455 z" /><path
       id="path60"
       style="font-size:14.1111px;line-height:1.25;font-family:Cabin;-inkscape-font-specification:Cabin;letter-spacing:0px;word-spacing:0px;stroke-width:0.264582"
       d="m 50.783863,130.16266 c -3.927901,0.15766 -7.394509,3.54409 -7.634737,7.46859 -0.298713,2.96619 1.177753,6.03317 3.722627,7.60172 0.03347,1.13734 -0.06737,2.29026 0.05078,3.41797 0.377662,0.77384 1.400708,0.32966 2.073828,0.44727 2.121204,-0.0338 4.258057,0.0676 6.369531,-0.0508 0.747231,-0.44821 0.303516,-1.47714 0.423828,-2.18555 0.09689,-0.55962 -0.20104,-1.32305 0.163036,-1.74475 3.440259,-2.16187 4.599063,-7.07866 2.64635,-10.60512 -1.447197,-2.84223 -4.641,-4.59925 -7.815245,-4.34935 z m 0.546875,1.38867 c 3.572159,-0.0851 6.818849,3.09355 6.804594,6.66703 0.08515,2.56435 -1.479144,5.05692 -3.75186,6.20797 0,1.06901 0,2.13802 0,3.20703 -0.783203,0 -1.566406,0 -2.349609,0 0,-2.16211 0,-4.32422 0,-6.48632 0.809546,-0.85185 1.739015,-1.6093 2.474609,-2.51954 0.342382,-0.74417 -0.764561,-1.34066 -1.225637,-0.69555 -0.651414,0.63934 -1.301693,1.27984 -1.95405,1.91821 -0.759274,-0.70205 -1.434657,-1.5124 -2.246094,-2.14648 -0.740332,-0.34311 -1.36044,0.76353 -0.698532,1.21885 0.74793,0.74139 1.494957,1.48369 2.243454,2.22451 0,2.16211 0,4.32421 0,6.48632 -0.783203,0 -1.566406,0 -2.34961,0 0,-1.06966 0,-2.13932 0,-3.20898 -2.776517,-1.35389 -4.365968,-4.72437 -3.555378,-7.72196 0.727882,-2.93709 3.561573,-5.20253 6.608113,-5.15109 z m -3.226563,21.8125 c 0.0077,0.9122 1.119246,0.71978 1.730469,0.72266 1.419484,-0.0307 2.852851,0.0618 4.263672,-0.0469 0.573207,-0.21059 0.458563,-0.87828 0.458984,-1.35937 -2.151041,0 -4.302083,0 -6.453125,0 0,0.22786 0,0.45573 0,0.68359 z" /><text
       xml:space="preserve"
       transform="scale(0.26458333)"
       id="text60"
       style="font-size:24px;line-height:1.25;font-family:'JetBrains Mono';-inkscape-font-specification:'JetBrains Mono';letter-spacing:0px;word-spacing:0px;white-space:pre;shape-inside:url(#rect60);display:inline" /><text
       xml:space="preserve"
       style="font-size:6.35px;line-height:1.25;font-family:'JetBrains Mono';-inkscape-font-specification:'JetBrains Mono';letter-spacing:0px;word-spacing:0px;stroke-width:0.264583"
       x="251.9696"
       y="47.674133"
       id="text61"><tspan
         sodipodi:role="line"
         id="tspan61"
         style="stroke-width:0.264583"></tspan></text><path
       id="path61"
       style="fill:#000000"
       d="m 39.780556,12.983587 c -2.17831,0.01974 -4.531037,0.350014 -6.546877,1.144531 -5.761887,2.105454 -10.609274,6.858516 -12.744131,12.675781 -0.8435,2.187265 -1.20043,4.687056 -1.18636,7.081249 -0.0565,3.069419 0.51886,6.149187 1.822057,8.937259 1.37696,3.182386 3.62473,5.924981 6.318077,8.088567 1.55175,1.323727 3.22631,2.849116 3.49252,4.992824 0.458597,3.00017 0.17593,6.073557 0.540797,9.044114 0.28256,1.130609 1.58462,1.448552 2.60665,1.480987 0.83027,0.02871 1.55123,0.538668 1.86484,1.30273 1.181177,1.76912 3.347037,2.984542 5.503257,2.517918 1.768767,-0.288073 3.222537,-1.597748 3.990987,-3.153845 0.77373,-1.160471 2.424617,-0.195859 3.336217,-1.149224 0.43129,-0.434934 1.1907,-0.732386 0.98633,-1.459375 0.0674,-2.764877 -0.16334,-5.55156 0.20313,-8.300391 0.40046,-2.446317 2.540437,-3.997956 4.136457,-5.678426 2.83139,-2.762063 5.522297,-5.89306 6.661587,-9.760868 0.93007,-2.614484 0.93134,-5.312292 0.87424,-8.05509 -0.0523,-1.777377 -0.25019,-3.452451 -0.84163,-5.094826 -2.13031,-6.473808 -7.458327,-11.725684 -13.970371,-13.789801 -2.28292,-0.760139 -4.68029,-0.849566 -7.047777,-0.824114 z m 0.8457,2.542969 c 6.294977,0.03355 12.444221,3.509137 15.671591,8.923025 1.602167,2.407029 2.475467,5.245422 2.597257,8.128114 0.4088,4.556801 -0.88083,9.267923 -3.742257,12.862347 -1.42742,1.959106 -3.411827,3.382128 -5.104287,5.085288 -1.71628,1.730675 -2.85034,4.039721 -2.988897,6.489115 -0.0691,0.58235 0.0238,1.3483 -0.79551,1.094641 -3.67997,0.0053 -7.365037,0.185924 -11.042194,0.01317 -0.58864,0.0049 -1.27209,-0.275595 -1.24899,-0.967411 -0.18769,-1.657118 -0.60394,-3.312639 -1.5573,-4.708331 -1.395927,-2.234771 -3.665197,-3.695067 -5.384997,-5.651983 -2.323617,-2.344385 -3.902877,-5.369954 -4.661557,-8.569726 -0.3819,-2.359887 -0.45803,-4.788064 -0.17736,-7.163806 0.37455,-2.608486 1.46868,-5.079706 2.862,-7.297694 1.496767,-2.012124 3.338397,-3.782986 5.384867,-5.231304 2.973507,-1.998484 6.613714,-3.023212 10.187634,-3.005448 z m -3.93359,8.367187 c -0.452357,0.191628 -0.933967,0.333124 -1.347657,0.603516 0.31851,0.821257 0.4397,1.760956 -0.0391,2.552734 -0.4733,1.222758 -1.79389,1.968507 -3.08397,1.761392 -0.50001,0.0312 -1.241997,-0.4318 -1.319717,0.320516 -0.19834,0.553699 -0.58175,1.167956 -0.61975,1.705201 1.257747,0.714875 2.425007,2.143874 1.946787,3.672343 -0.2888,0.987038 -1.122447,1.708289 -1.954597,2.237814 0.2261,0.778763 0.41752,1.616469 0.91406,2.271484 2.012077,-1.215758 4.855817,0.998566 4.346937,3.250164 0.031,0.373823 -0.49908,0.914461 0.10568,1.02611 0.6397,0.239762 1.359527,0.799351 2.049327,0.516695 0.54871,-0.884265 1.33436,-1.739365 2.43292,-1.866142 1.354,-0.199003 2.771327,0.742173 3.270207,1.97747 0.8191,-0.0493 1.60005,-0.411886 2.29492,-0.828125 -0.44965,-0.960064 -0.567,-2.211865 0.27539,-3.001953 0.82333,-1.044377 2.283817,-1.856911 3.591797,-1.201172 0.43025,0.266521 0.47181,-0.627458 0.70546,-0.874229 0.11582,-0.417825 0.60483,-1.003861 0.41811,-1.361167 -1.66188,-0.636031 -2.55738,-2.9122 -1.50705,-4.435336 0.35285,-0.623175 0.90125,-1.17224 1.60027,-1.382002 -0.20401,-0.748237 -0.57106,-1.44177 -0.85937,-2.160157 -1.0938,0.119123 -2.43303,0.480286 -3.276627,-0.474054 -0.70866,-0.540554 -1.23875,-1.371137 -1.05736,-2.295477 -0.0533,-0.480286 0.33345,-1.198098 -0.0452,-1.491541 -0.65938,-0.263064 -1.29624,-0.767003 -2.01534,-0.774084 -0.47613,0.848382 -1.17614,1.63359 -2.166017,1.873047 -1.14247,0.40483 -2.3151,-0.196733 -3.07812,-1.041016 -0.40254,-0.326875 -0.65632,-1.171276 -1.24781,-0.71083 -0.11141,0.04293 -0.22282,0.08587 -0.33422,0.128799 z m 3.61328,6.039063 c 1.44211,-0.08252 2.856347,0.661819 3.563387,1.92936 1.16474,1.703056 0.41808,4.137878 -1.2564,5.207009 -0.958227,0.759206 -2.304777,1.018888 -3.411087,0.4206 -1.40669,-0.501545 -2.50512,-1.818997 -2.51798,-3.346122 -0.0851,-1.050327 -0.014,-2.258295 0.90753,-2.94763 0.72737,-0.754802 1.61662,-1.351327 2.71455,-1.263217 z" /><path
       id="path62"
       style="fill:#000000;stroke-width:1"
       d="M 141.15106,43.448542 V 18.715289 h 3.65388 3.65388 l 0.14725,1.074287 c 0.19377,1.41372 0.60707,2.156629 1.89963,3.414561 1.23193,1.198933 2.12925,1.360859 2.81924,0.508748 0.54774,-0.676434 0.55434,-1.057578 0.0144,-0.830611 -1.47866,0.621536 -2.78641,0.125653 -3.64257,-1.381217 -0.77126,-1.357444 -0.79804,-3.498554 -0.0587,-4.688326 1.48757,-2.393687 3.98152,-2.106702 5.22106,0.600794 0.5722,1.249838 0.63264,1.301764 1.51524,1.301764 0.91501,0 0.92004,0.0052 1.08401,1.129644 0.22929,1.572371 0.83401,2.658515 2.00268,3.597023 1.16606,0.936414 2.05139,1.026479 2.6632,0.270929 0.55177,-0.681394 0.55855,-1.065121 0.0144,-0.811844 -0.2289,0.106536 -0.81431,0.193147 -1.30091,0.192469 -1.65303,-0.0023 -2.80147,-1.652604 -2.80147,-4.025662 0,-1.525696 0.38695,-2.413741 1.43662,-3.296978 1.57873,-1.32841 3.43954,-0.430427 4.25343,2.052595 0.27929,0.852047 0.33924,0.891824 1.34407,0.891824 1.02697,0 1.05187,0.01821 1.05697,0.772915 0.0107,1.585002 1.7286,4.138523 3.14259,4.671216 0.69036,0.260082 1.50229,-0.04479 1.85011,-0.69469 0.34894,-0.652003 0.17543,-0.819118 -0.48403,-0.466184 -1.7146,0.917627 -4.03825,-1.387376 -4.03825,-4.00584 0,-1.796845 1.63632,-3.844713 3.07207,-3.844713 1.25608,0 2.59766,1.302997 2.99956,2.913292 0.14612,0.585436 0.26934,0.654004 1.17531,0.654004 h 1.01209 l 0.14679,1.07095 c 0.20582,1.501647 0.92466,2.787637 2.06154,3.688063 1.14436,0.906351 2.05116,0.987751 2.6578,0.238583 0.55175,-0.681394 0.55855,-1.065121 0.0144,-0.811844 -0.2289,0.106536 -0.83094,0.192567 -1.33786,0.191178 -0.7535,-0.0021 -1.06549,-0.159464 -1.70988,-0.862609 -0.43351,-0.473046 -0.91284,-1.322932 -1.06517,-1.888635 -0.71693,-2.662448 1.28034,-5.642107 3.42166,-5.104671 0.7882,0.197825 1.80874,1.283838 2.31945,2.468252 0.40609,0.941799 0.49907,1.010733 1.36322,1.010733 0.9194,0 0.92868,0.0093 1.07465,1.074287 0.19382,1.414038 0.71976,2.411622 1.85575,3.519865 1.12448,1.097013 2.17871,1.248678 2.857,0.411015 0.55723,-0.688149 0.56688,-1.073713 0.0205,-0.819415 -0.76947,0.358129 -2.09007,0.205548 -2.83947,-0.328068 -1.44332,-1.027737 -1.93881,-3.731407 -1.0155,-5.541225 0.52479,-1.028687 1.68367,-1.881444 2.55877,-1.882866 1.2898,-0.0021 2.61062,1.282567 2.99437,2.912403 l 0.15399,0.654004 h 3.9195 3.91949 V 43.448542 68.181799 H 169.68945 141.1511 Z m 54.80302,2.734552 V 26.322031 h -26.14539 -26.24932 l -0.0612,19.921927 -0.0612,19.610086 26.31052,-0.06087 26.2066,-0.06087 z m -48.85752,13.080461 v -2.972746 h 2.97274 2.97274 v 2.972746 2.972747 h -2.97274 -2.97274 z m 6.42112,0 v -2.972746 h 3.09165 3.09166 v 2.972746 2.972747 h -3.09166 -3.09165 z m 5.18183,-0.05945 -0.0687,-2.080924 -2.08093,-0.06872 -2.08092,-0.06872 v 2.149637 2.149637 h 2.14964 2.14963 z m 1.47712,0.05945 v -2.972746 h 2.97275 2.97274 v 2.972746 2.972747 h -2.97274 -2.97275 z m 5.18184,-0.05945 -0.0687,-2.080924 -2.19983,-0.06838 -2.19983,-0.06838 v 2.149303 2.149302 h 2.26854 2.26854 z m 1.47711,0.05945 v -2.972746 h 2.97274 2.97275 v 2.972746 2.972747 h -2.97275 -2.97274 z m 4.99421,-0.118909 v -2.140378 h -2.14038 -2.14038 v 2.140378 2.140378 h 2.14038 2.14038 z m 1.42692,0.118909 v -2.972746 h 2.97274 2.97276 v 2.972746 2.972747 h -2.97276 -2.97274 z m 5.23204,-0.118909 v -2.140378 h -2.14038 -2.14038 v 2.140378 2.140378 h 2.14038 2.14038 z m 1.42691,0.118909 v -2.972746 h 2.97275 2.97275 v 2.972746 2.972747 h -2.97275 -2.97275 z m 5.23204,-0.118909 v -2.140378 h -2.25929 -2.25929 v 2.140378 2.140378 h 2.25929 2.25929 z m -38.05114,-6.540044 v -2.972746 h 2.97274 2.97274 v 2.972746 2.972748 h -2.97274 -2.97274 z m 6.42112,0 v -2.972746 h 3.09165 3.09166 v 2.972746 2.972748 h -3.09166 -3.09165 z m 5.23203,0.118911 v -2.140378 h -2.14038 -2.14037 v 2.140378 2.140377 h 2.14037 2.14038 z m 1.42692,-0.118911 v -2.972746 h 2.97275 2.97274 v 2.972746 2.972748 h -2.97274 -2.97275 z m 5.23203,0.118911 v -2.140378 h -2.25928 -2.25929 v 2.140378 2.140377 h 2.25929 2.25928 z m 1.42692,-0.118911 v -2.972746 h 2.97274 2.97275 v 2.972746 2.972748 h -2.97275 -2.97274 z m 4.99421,0.118911 v -2.140378 h -2.14038 -2.14038 v 2.140378 2.140377 h 2.14038 2.14038 z m 1.42692,-0.118911 v -2.972746 h 2.97274 2.97276 v 2.972746 2.972748 h -2.97276 -2.97274 z m 5.23204,0.118911 v -2.140378 h -2.14038 -2.14038 v 2.140378 2.140377 h 2.14038 2.14038 z m 1.42691,-0.118911 v -2.972746 h 2.97275 2.97275 v 2.972746 2.972748 h -2.97275 -2.97275 z m 5.23204,0.118911 v -2.140378 h -2.25929 -2.25929 v 2.140378 2.140377 h 2.25929 2.25929 z m 1.1891,-0.118911 v -2.972746 h 3.09165 3.09166 v 2.972746 2.972748 h -3.09166 -3.09165 z m 5.23203,0.118911 v -2.140378 h -2.14038 -2.14038 v 2.140378 2.140377 h 2.14038 2.14038 z M 147.09656,46.18347 v -2.972747 h 2.97274 2.97274 v 2.972747 2.972746 h -2.97274 -2.97274 z m 6.42112,0 v -2.972747 h 3.09165 3.09166 v 2.972747 2.972746 h -3.09166 -3.09165 z m 5.23203,0 v -2.259288 h -2.14038 -2.14037 v 2.259288 2.259287 h 2.14037 2.14038 z m 1.42692,0 v -2.972747 h 2.97275 2.97274 v 2.972747 2.972746 h -2.97274 -2.97275 z m 5.23203,0 v -2.259288 h -2.25928 -2.25929 v 2.259288 2.259287 h 2.25929 2.25928 z m 1.42692,0 v -2.972747 h 2.97274 2.97275 v 2.972747 2.972746 h -2.97275 -2.97274 z m 4.99421,0 v -2.259288 h -2.14038 -2.14038 v 2.259288 2.259287 h 2.14038 2.14038 z m 1.42692,0 v -2.972747 h 2.97274 2.97276 v 2.972747 2.972746 h -2.97276 -2.97274 z m 5.23204,0 v -2.259288 h -2.14038 -2.14038 v 2.259288 2.259287 h 2.14038 2.14038 z m 1.42691,0 v -2.972747 h 2.97275 2.97275 v 2.972747 2.972746 h -2.97275 -2.97275 z m 5.23204,0 v -2.259288 h -2.25929 -2.25929 v 2.259288 2.259287 h 2.25929 2.25929 z m 1.1891,0 v -2.972747 h 3.09165 3.09166 v 2.972747 2.972746 h -3.09166 -3.09165 z m 5.23203,0 v -2.259288 h -2.14038 -2.14038 v 2.259288 2.259287 h 2.14038 2.14038 z m -44.47227,-6.421133 v -2.972748 h 2.97274 2.97274 v 2.972748 2.972746 h -2.97274 -2.97274 z m 6.42112,0 v -2.972748 h 3.09165 3.09166 v 2.972748 2.972746 h -3.09166 -3.09165 z m 5.23203,-0.11891 v -2.140378 h -2.14038 -2.14037 v 2.140378 2.140377 h 2.14037 2.14038 z m 1.42692,0.11891 v -2.972748 h 2.97275 2.97274 v 2.972748 2.972746 h -2.97274 -2.97275 z m 5.23203,-0.11891 v -2.140378 h -2.25928 -2.25929 v 2.140378 2.140377 h 2.25929 2.25928 z m 1.42692,0.11891 v -2.972748 h 2.97274 2.97275 v 2.972748 2.972746 h -2.97275 -2.97274 z m 4.99421,-0.11891 v -2.140378 h -2.14038 -2.14038 v 2.140378 2.140377 h 2.14038 2.14038 z m 1.42692,0.11891 v -2.972748 h 2.97274 2.97276 v 2.972748 2.972746 h -2.97276 -2.97274 z m 5.23204,-0.11891 v -2.140378 h -2.14038 -2.14038 v 2.140378 2.140377 h 2.14038 2.14038 z m 1.42691,0.11891 v -2.972748 h 2.97275 2.97275 v 2.972748 2.972746 h -2.97275 -2.97275 z m 5.23204,-0.11891 v -2.140378 h -2.25929 -2.25929 v 2.140378 2.140377 h 2.25929 2.25929 z m 1.1891,0.11891 v -2.972748 h 3.09165 3.09166 v 2.972748 2.972746 h -3.09166 -3.09165 z m 5.23203,-0.11891 v -2.140378 h -2.14038 -2.14038 v 2.140378 2.140377 h 2.14038 2.14038 z m -18.31212,-6.421134 v -3.091656 h 2.97274 2.97276 v 3.091656 3.091658 h -2.97276 -2.97274 z m 5.23204,0 v -2.140377 h -2.14038 -2.14038 v 2.140377 2.140378 h 2.14038 2.14038 z m 1.42691,0 v -3.091656 h 2.97275 2.97275 v 3.091656 3.091658 h -2.97275 -2.97275 z m 5.23204,0 v -2.140377 h -2.25929 -2.25929 v 2.140377 2.140378 h 2.25929 2.25929 z m 1.1891,0 v -3.091656 h 3.09165 3.09166 v 3.091656 3.091658 h -3.09166 -3.09165 z m 5.23203,0 v -2.140377 h -2.14038 -2.14038 v 2.140377 2.140378 h 2.14038 2.14038 z M 153.00797,21.833031 c 0.44777,-0.283721 -0.0579,-0.578255 -0.94918,-0.552913 -0.83255,0.02367 -1.39494,-0.696133 -1.39494,-1.785376 v -0.779453 h 1.78365 c 1.47645,0 1.78364,-0.06553 1.78364,-0.380512 0,-0.537307 -1.52385,-1.997686 -2.08451,-1.997686 -0.71424,0 -1.65451,0.862798 -1.96477,1.802869 -0.72764,2.204778 1.19984,4.723536 2.82611,3.693071 z m 8.72427,-0.0419 c 0.23151,-0.374595 -0.0327,-0.534928 -0.84365,-0.511872 -0.81417,0.02314 -1.32187,-0.559833 -1.5706,-1.80348 l -0.15209,-0.760482 h 1.81337 c 1.67721,0 1.81338,-0.03709 1.81338,-0.493933 0,-0.647143 -1.24913,-1.884265 -1.90256,-1.884265 -0.28173,0 -0.83727,0.325039 -1.23454,0.722307 -0.68271,0.68271 -0.71696,0.806143 -0.62492,2.251605 0.0763,1.198963 0.21959,1.659382 0.66314,2.13153 0.58412,0.621759 1.74676,0.820579 2.03847,0.34859 z m 8.79932,0 c 0.2402,-0.388656 -0.0458,-0.540003 -0.95559,-0.505799 -0.9364,0.0352 -1.21933,-0.30422 -1.34985,-1.619446 l -0.0825,-0.83168 1.8431,-0.06946 c 1.01371,-0.0382 1.8431,-0.129048 1.8431,-0.201879 0,-0.560424 -0.87085,-1.757624 -1.45431,-1.999301 -2.23984,-0.927767 -3.81489,2.867212 -1.98341,4.778864 0.68494,0.714936 1.82694,0.954435 2.13949,0.448699 z m 8.8744,0.0419 c 0.46931,-0.297372 -0.0804,-0.583433 -1.05091,-0.546945 -0.68871,0.02589 -0.81353,-0.0737 -1.15174,-0.918962 -0.6409,-1.601798 -0.59837,-1.651835 1.40434,-1.651835 1.59191,0 1.78365,-0.04843 1.78365,-0.450489 0,-0.607039 -1.26537,-1.927709 -1.84699,-1.927709 -0.7057,0 -1.65301,0.859142 -1.95447,1.772556 -0.72834,2.206922 1.19533,4.750361 2.81612,3.723384 z m 8.72426,-0.0419 c 0.24103,-0.389986 -0.0465,-0.539976 -0.96852,-0.505312 -0.88972,0.03345 -1.1408,-0.294676 -1.46649,-1.916518 l -0.13133,-0.654004 h 1.81338 c 1.67721,0 1.81337,-0.03709 1.81337,-0.493933 0,-0.632332 -1.24312,-1.884265 -1.871,-1.884265 -0.26437,0 -0.78094,0.258282 -1.14794,0.573958 -0.61303,0.527308 -0.66727,0.709383 -0.66727,2.240128 0,1.436066 0.0796,1.750926 0.57656,2.279879 0.5942,0.632498 1.75483,0.83643 2.04924,0.360067 z"
       sodipodi:nodetypes="ccccssssscsssssscsssssssssssscsssssssssssssssscscccccccccccccccccccccccccccccccccccccccccccccccccccccccccccccccccccccccccccccccccccccccccccccccccccccccccccccccccccccccccccccccccccccccccccccccccccccccccccccccccccccccccccccccccccccccccccccccccccccccccccccccccccccccccccccccccccccccccccccccccccccccccccccccccccccccccccccccccccccccccccccccccccccccccccccccccccccccccccccccccccccccccccccccccccccccccccccccccccccccccccccccccccccccccccccccccccccccccccccccccccccccccccccccccccccccccccccccccccccccccccccccccccccccccccccccccccccccccccccccccccccccccccccccccccccccccccccccccccccccccssscsssssssscsssscsscsccssssccssssssssssscsssssss" /><path
       id="path63"
       style="fill:#000000"
       d="m 121.01417,15.74479 c -10.85683,1.231618 -21.742617,2.22139 -32.580391,3.611762 -0.80748,6.25e-4 -1.62895,0.639786 -1.43523,1.513238 -0.0353,0.441577 0.28322,1.172796 0.0817,1.452356 -3.969267,0.04717 -7.938537,0.09388 -11.907814,0.139441 -0.0222,14.586494 -0.15853,29.173515 -0.0371,43.759766 -0.0699,0.519276 0.077,1.077986 0.6967,1.068478 4.182287,0.310025 8.386164,0.244324 12.578674,0.297379 7.209044,0.0026 14.423681,0.06589 21.627681,-0.22965 0.63078,-0.08772 1.67389,0.116349 1.80054,-0.746474 0.35246,-1.65575 0.28246,-3.365065 0.35889,-5.047937 4.64621,-0.519736 9.31516,-0.883878 13.93555,-1.601562 0.68791,0.0264 0.58844,-0.593276 0.54492,-1.087891 -1.06679,-11.862673 -2.36076,-23.703253 -3.63937,-35.545158 -0.30335,-2.30228 -0.43272,-4.637869 -0.87626,-6.915779 -0.14062,-0.506207 -0.65751,-0.728164 -1.14843,-0.667969 z m -0.75586,3.666016 c 1.53287,12.850607 2.78882,25.732881 4.24609,38.591797 -4.14257,0.442013 -8.29178,0.833095 -12.42578,1.347656 -0.0277,-11.003707 0.0688,-22.008627 -0.0916,-33.011449 -0.0927,-1.175413 0.0866,-2.42797 -0.34201,-3.543239 -0.98851,-0.505258 -2.17478,-0.299944 -3.25074,-0.406482 -5.96213,-0.149151 -11.930077,0.05085 -17.889904,-0.164632 -0.36168,-0.08081 -0.9515,0.02076 -1.177707,-0.280448 -0.1792,-0.676809 0.747467,-0.474402 1.149017,-0.611508 9.654864,-1.142638 19.316114,-2.113796 28.997574,-2.989629 0.95235,-0.31372 0.61094,0.458202 0.78504,1.067934 z m -26.699214,5.294921 c 5.379557,1e-6 10.759104,0 16.138664,0 0,13.49349 0,26.98698 0,40.480469 -10.759767,0 -21.519521,0 -32.279285,0 0,-13.493489 0,-26.986979 0,-40.480469 5.380207,0 10.760414,1e-6 16.140621,0 z m -0.42969,4.826172 c -3.6914,0.02424 -7.382817,0.04711 -11.074214,0.07227 -0.0185,5.201831 -0.184,10.407308 -0.0284,15.607243 -0.0103,0.790346 1.02215,0.66915 1.56574,0.750235 5.819877,0.284512 11.653751,0.226871 17.477978,0.103492 1.12752,-0.09941 2.32617,0.05066 3.39679,-0.361361 0.49637,-1.041185 0.33129,-2.263446 0.43646,-3.388398 0.079,-3.818766 0.13648,-7.651862 -0.18593,-11.460456 -0.001,-0.570451 -0.28078,-1.211034 -0.9436,-1.174527 -3.53565,-0.278362 -7.100637,-0.119299 -10.644814,-0.148494 z m 0.16406,2.31836 c 3.086587,0 6.173177,0 9.259764,0 0,3.968099 0,7.936198 0,11.904297 -6.173177,0 -12.346354,0 -18.519518,0 0,-3.968099 0,-7.936198 0,-11.904297 3.086587,0 6.173164,0 9.259754,0 z m -3.896477,19.33789 c -2.26188,0.06805 -4.54255,-0.01481 -6.791017,0.234375 -0.93013,0.309586 -0.80146,1.902292 0.25391,1.919922 3.058557,0.308841 6.145857,0.142621 9.216384,0.199987 3.849447,-0.03902 7.707897,0.08969 11.550694,-0.16531 0.66058,0.03787 1.3426,-0.445405 1.17627,-1.169442 -0.2891,-0.932125 -1.49875,-0.827363 -2.28384,-0.927601 -4.369337,-0.184724 -8.749754,-0.09239 -13.122401,-0.09193 z m -3.44727,6.642578 c -1.22098,0.0776 -2.504097,-0.095 -3.681637,0.277344 -0.72667,0.38773 -0.23013,1.782193 0.58985,1.648438 6.229757,0.163064 12.464661,0.07542 18.695048,-0.0235 0.9918,-0.09872 2.09299,0.08753 2.9983,-0.386659 0.58617,-0.426271 0.07,-1.255098 -0.56446,-1.242188 -3.25695,-0.32073 -6.542677,-0.177431 -9.811924,-0.254784 -2.74164,-0.01347 -5.483527,-0.03777 -8.225177,-0.01865 z" /><path
       id="path125"
       style="font-size:14.1111px;line-height:1.25;font-family:Cabin;-inkscape-font-specification:Cabin;letter-spacing:0px;word-spacing:0px;stroke-width:0.264583"
       d="m 148.50868,90.003586 q -1.43934,0 -2.56823,-0.627937 -1.12183,-0.635 -1.77094,-1.78505 -0.64206,-1.15711 -0.64206,-2.72345 0,-1.566327 0.64912,-2.716377 0.65616,-1.15711 1.79211,-1.78506 1.143,-0.635 2.59644,-0.635 0.75494,0 1.43933,0.16228 0.68439,0.16228 1.19945,0.41628 l -0.14111,1.24177 q -0.52917,-0.254 -1.16417,-0.43038 -0.635,-0.17639 -1.34761,-0.17639 -1.16417,0 -1.95439,0.52916 -0.79022,0.52211 -1.19944,1.41111 -0.40217,0.889 -0.40217,1.982607 0,1.09361 0.39511,1.98261 0.40217,0.889 1.18534,1.41817 0.79022,0.52211 1.94733,0.52211 0.73377,0 1.35466,-0.15522 0.62795,-0.16228 1.18534,-0.43745 l 0.14111,1.241777 q -0.52917,0.23989 -1.19239,0.40217 -0.66322,0.16227 -1.50283,0.16227 z m 5.63032,-0.0564 q -0.64206,0 -1.12184,-0.26106 -0.47977,-0.26105 -0.74788,-0.712607 -0.26106,-0.45155 -0.26106,-1.03011 0,-0.58561 0.254,-1.00189 0.26106,-0.42333 0.69144,-0.69849 0.43745,-0.28223 0.97367,-0.4445 0.53622,-0.16934 1.10772,-0.23989 0.57856,-0.0776 1.10772,-0.0847 0,-0.98778 -0.38805,-1.29117 -0.38806,-0.303377 -1.12183,-0.303377 -0.38806,0 -0.83256,0.11994 -0.43744,0.11994 -0.98778,0.500937 l -0.18344,-1.030107 q 0.41628,-0.3175 1.03717,-0.51505 0.62088,-0.20461 1.30527,-0.20461 0.87489,0 1.41111,0.31044 0.53623,0.30339 0.78317,1.03011 0.24695,0.726717 0.24695,1.975557 v 1.41111 q 0,0.49388 0.0423,0.81844 0.0494,0.3175 0.21166,0.47978 0.16934,0.15522 0.53622,0.15522 h 0.127 l -0.19755,1.015997 h -0.0988 q -0.61383,0 -0.9525,-0.11995 -0.33161,-0.11994 -0.508,-0.34572 -0.17639,-0.225767 -0.3175,-0.550327 -0.38806,0.45156 -0.91722,0.733777 -0.52917,0.28222 -1.19945,0.28222 z m 0.23989,-1.015997 q 0.508,0 0.98072,-0.254 0.47977,-0.254 0.78316,-0.67733 v -1.651 q -1.00894,0.0353 -1.63688,0.19755 -0.62089,0.16228 -0.91017,0.48684 -0.28928,0.32455 -0.28928,0.83961 0,0.55739 0.29634,0.81139 0.30338,0.24694 0.77611,0.24694 z m 6.70276,1.015997 q -0.67027,0 -1.06538,-0.23989 -0.38806,-0.24694 -0.55739,-0.627937 -0.16934,-0.381 -0.16934,-0.79728 v -9.059327 h 1.27 v 8.325547 q 0,0.59267 0.0776,0.889 0.0776,0.29633 0.31045,0.39511 0.23989,0.0988 0.72672,0.0988 l -0.18344,1.015997 z m 4.7978,0 q -1.22061,0 -2.05317,-0.50095 -0.83255,-0.500937 -1.26294,-1.326437 -0.42334,-0.83255 -0.42334,-1.82739 0,-0.96661 0.39511,-1.77094 0.40217,-0.804327 1.15711,-1.284107 0.762,-0.48683 1.83445,-0.48683 0.86077,0 1.53105,0.34572 0.67734,0.33867 1.05834,0.99483 0.38805,0.649107 0.38805,1.580447 0,0.14816 -0.0141,0.32455 -0.007,0.16933 -0.0423,0.35278 h -5.00944 q 0.0917,0.95955 0.45861,1.49578 0.36689,0.53622 0.92428,0.75494 0.55739,0.21872 1.21355,0.21872 0.47978,0 1.00189,-0.0988 0.52211,-0.0988 0.98778,-0.31044 l 0.16933,1.00189 q -0.40216,0.176387 -0.98072,0.359827 -0.57856,0.17639 -1.3335,0.17639 z m -2.32834,-4.473217 h 3.64067 q 0,-0.48683 -0.18345,-0.84667 -0.18344,-0.35983 -0.55739,-0.550327 -0.37394,-0.19755 -0.95249,-0.19755 -0.84667,0 -1.30528,0.423327 -0.45156,0.41628 -0.64206,1.17122 z m 6.2371,4.332107 v -6.914434 h 0.98778 l 0.254,1.326437 -0.49389,-0.211657 q 0.6985,-0.77611 1.36172,-1.016 0.67028,-0.23989 1.30528,-0.23989 1.51694,0 2.16606,0.87489 0.65616,0.874877 0.65616,2.370657 v 3.809997 h -1.27 v -3.809997 q 0,-1.10066 -0.40922,-1.60866 -0.40922,-0.507997 -1.397,-0.507997 -0.6985,0 -1.28411,0.310437 -0.57856,0.30339 -0.762,0.97367 l 0.15522,-0.77611 v 5.418657 z m 10.62567,0.14111 q -0.88195,0 -1.59456,-0.47978 -0.71261,-0.479777 -1.13595,-1.291157 -0.41627,-0.81139 -0.41627,-1.81328 0,-0.9525 0.381,-1.778 0.38805,-0.825497 1.09361,-1.326437 0.70555,-0.508 1.67217,-0.508 0.69144,0 1.33349,0.30339 0.64911,0.29633 1.05128,0.99483 l -0.26811,0.183437 v -5.009437 h 1.27 v 10.583324 h -1.12889 l -0.23989,-1.467557 0.32456,0.22578 q -0.30339,0.68439 -0.9525,1.037167 -0.64911,0.34572 -1.38994,0.34572 z m 0.22577,-1.128887 q 0.47978,0 0.94545,-0.24694 0.47272,-0.24695 0.77611,-0.78317 0.31044,-0.54328 0.31044,-1.42522 0,-0.81844 -0.31044,-1.36878 -0.30339,-0.55739 -0.77611,-0.83255 -0.46567,-0.282217 -0.94545,-0.282217 -0.64911,0 -1.11477,0.324547 -0.46567,0.32456 -0.71261,0.889 -0.24695,0.55739 -0.24695,1.27 0,0.67028 0.24695,1.22767 0.24694,0.55738 0.71261,0.89605 0.46566,0.33161 1.11477,0.33161 z m 6.47701,1.128887 q -0.64206,0 -1.12184,-0.26106 -0.47977,-0.26105 -0.74789,-0.712607 -0.26105,-0.45155 -0.26105,-1.03011 0,-0.58561 0.254,-1.00189 0.26105,-0.42333 0.69144,-0.69849 0.43745,-0.28223 0.97367,-0.4445 0.53622,-0.16934 1.10772,-0.23989 0.57856,-0.0776 1.10772,-0.0847 0,-0.98778 -0.38805,-1.29117 -0.38806,-0.303377 -1.12184,-0.303377 -0.38805,0 -0.83255,0.11994 -0.43745,0.11994 -0.98778,0.500937 l -0.18344,-1.030107 q 0.41627,-0.3175 1.03716,-0.51505 0.62089,-0.20461 1.30528,-0.20461 0.87489,0 1.41111,0.31044 0.53622,0.30339 0.78317,1.03011 0.24694,0.726717 0.24694,1.975557 v 1.41111 q 0,0.49388 0.0423,0.81844 0.0494,0.3175 0.21167,0.47978 0.16933,0.15522 0.53622,0.15522 h 0.127 l -0.19755,1.015997 h -0.0988 q -0.61384,0 -0.9525,-0.11995 -0.33161,-0.11994 -0.508,-0.34572 -0.17639,-0.225767 -0.3175,-0.550327 -0.38806,0.45156 -0.91723,0.733777 -0.52916,0.28222 -1.19944,0.28222 z m 0.23988,-1.015997 q 0.508,0 0.98073,-0.254 0.47978,-0.254 0.78316,-0.67733 v -1.651 q -1.00894,0.0353 -1.63689,0.19755 -0.62088,0.16228 -0.91016,0.48684 -0.28928,0.32455 -0.28928,0.83961 0,0.55739 0.29633,0.81139 0.30339,0.24694 0.77611,0.24694 z m 4.92478,0.874887 v -6.914434 h 1.04422 l 0.15522,1.143 q 0.52917,-0.65617 1.00895,-0.96661 0.48683,-0.3175 1.03716,-0.3175 0.17639,0 0.32456,0.0423 l -0.127,1.396997 q -0.0917,-0.0212 -0.19756,-0.0282 -0.0988,-0.0141 -0.22578,-0.0141 -0.55033,0 -1.01599,0.24694 -0.45862,0.23989 -0.64912,0.52917 v 4.882437 z" /><path
       id="path126"
       style="font-size:14.1111px;line-height:1.25;font-family:Cabin;-inkscape-font-specification:Cabin;letter-spacing:0px;word-spacing:0px;stroke-width:0.264583"
       d="m 88.247141,89.427066 v -9.877764 h 3.11855 q 1.32645,0 2.08139,0.59972 0.75494,0.59267 0.75494,1.81328 0,0.8255 -0.35983,1.45344 -0.35983,0.62795 -1.0795,0.818447 l 0.19756,-0.225777 q 1.03011,0.169327 1.59455,0.825497 0.56445,0.64911 0.56445,1.77094 0,1.29822 -0.83962,2.06022 -0.83255,0.761997 -2.30716,0.761997 z m 1.34055,-1.213547 h 2.27189 q 0.81844,0 1.30528,-0.40923 0.48683,-0.40922 0.48683,-1.24177 0,-0.93134 -0.50094,-1.31234 -0.49389,-0.381 -1.29117,-0.381 h -2.27189 z m 0,-4.557887 h 1.60867 q 0.71967,0 1.17122,-0.28928 0.45156,-0.28927 0.45156,-1.16416 0,-0.86784 -0.45156,-1.15711 -0.45155,-0.29634 -1.17122,-0.29634 h -1.60867 z m 8.509,5.912544 q -0.67028,0 -1.06539,-0.239887 -0.38806,-0.24694 -0.55739,-0.62794 -0.16933,-0.381 -0.16933,-0.79728 v -9.059317 h 1.26999 v 8.325537 q 0,0.59267 0.0776,0.889 0.0776,0.29634 0.31045,0.39511 0.23989,0.0988 0.72672,0.0988 l -0.18344,1.015997 z m 4.501449,0 q -1.08655,0 -1.85561,-0.479777 -0.761999,-0.48683 -1.171219,-1.29822 -0.40217,-0.81844 -0.40217,-1.82033 0,-1.00189 0.40217,-1.81328 0.40922,-0.818437 1.171219,-1.298217 0.76906,-0.48683 1.85561,-0.48683 1.0795,0 1.84856,0.48683 0.76905,0.47978 1.17122,1.298217 0.40922,0.81139 0.40922,1.81328 0,1.00189 -0.40922,1.82033 -0.40217,0.81139 -1.17122,1.29822 -0.76906,0.479777 -1.84856,0.479777 z m 0,-1.128887 q 1.03011,0 1.58045,-0.64911 0.55033,-0.65616 0.55033,-1.82033 0,-1.16417 -0.55033,-1.81328 -0.55034,-0.656157 -1.58045,-0.656157 -1.02305,0 -1.58044,0.656157 -0.55034,0.64911 -0.55034,1.81328 0,1.16417 0.55034,1.82033 0.55739,0.64911 1.58044,0.64911 z m 7.53532,4.515557 q -0.94544,0 -1.69333,-0.23284 -0.74083,-0.23283 -1.17122,-0.69144 -0.42333,-0.45861 -0.42333,-1.13595 0,-0.56444 0.31749,-0.97366 0.32456,-0.40217 0.88195,-0.649107 -0.33161,-0.16228 -0.508,-0.381 -0.16933,-0.22578 -0.16933,-0.49389 0,-0.3175 0.1905,-0.5715 0.19755,-0.26106 0.62794,-0.43039 -0.57856,-0.35983 -0.889,-0.96661 -0.31044,-0.61383 -0.31044,-1.36172 0,-0.75494 0.33866,-1.361717 0.33867,-0.61383 0.97367,-0.97367 0.64205,-0.35983 1.53811,-0.35983 0.47978,0 0.90311,0.14111 0.43039,0.14111 0.79022,0.39511 0.3175,-0.18344 0.74789,-0.30339 0.43745,-0.11994 0.97367,-0.11994 0.0353,0 0.0564,0 0.0282,0 0.0564,0 l -0.15522,0.84666 q -0.0847,0 -0.16228,0 -0.0776,0 -0.16228,0 -0.0706,0 -0.32456,0.0212 -0.254,0.0212 -0.46566,0.0776 0.28928,0.33867 0.4445,0.761997 0.16228,0.41628 0.16228,0.87489 0,0.79022 -0.34573,1.41817 -0.33866,0.62088 -0.98072,0.98777 -0.64206,0.35984 -1.53811,0.35984 -0.254,0 -0.48683,-0.0282 -0.23284,-0.0353 -0.4445,-0.0988 -0.32456,0.10583 -0.32456,0.36688 0,0.15523 0.18345,0.27517 0.18344,0.11289 0.59266,0.17639 l 1.84856,0.29633 q 1.12183,0.17639 1.72861,0.649107 0.61383,0.47273 0.61383,1.34056 0,0.71966 -0.42333,1.19239 -0.41628,0.47977 -1.18533,0.71261 -0.76906,0.23989 -1.80623,0.23989 z m 0.11289,-1.12889 q 0.97367,0 1.49578,-0.254 0.52211,-0.24695 0.52211,-0.73378 0,-0.381 -0.33161,-0.59972 -0.32456,-0.21872 -0.93839,-0.33161 l -1.9685,-0.33161 q -0.38806,0.16933 -0.67733,0.45155 -0.28928,0.28928 -0.28928,0.67028 0,0.59267 0.59267,0.86078 0.59972,0.26811 1.59455,0.26811 z m -0.40922,-5.009437 q 0.80433,0 1.22766,-0.47978 0.42334,-0.48683 0.42334,-1.25589 0,-0.74083 -0.42334,-1.213547 -0.42333,-0.47978 -1.22766,-0.47978 -0.80433,0 -1.22061,0.47978 -0.41628,0.472717 -0.41628,1.213547 0,0.76906 0.41628,1.25589 0.41628,0.47978 1.22061,0.47978 z" /><path
       id="path127"
       style="font-size:14.1111px;line-height:1.25;font-family:Cabin;-inkscape-font-specification:Cabin;letter-spacing:0px;word-spacing:0px;stroke-width:0.264583"
       d="m 16.279495,89.989806 q -0.613833,0 -1.227666,-0.0917 -0.613833,-0.0917 -1.135943,-0.23284 -0.522111,-0.14816 -0.867833,-0.310437 l 0.183444,-1.42522 q 0.381,0.18344 0.917222,0.381 0.543277,0.19755 1.171221,0.33161 0.627944,0.13405 1.269999,0.13405 0.952499,0 1.509888,-0.34572 0.564444,-0.35278 0.564444,-1.09361 0,-0.55739 -0.282222,-0.91017 -0.282222,-0.35983 -0.853722,-0.61383 -0.564444,-0.254 -1.418165,-0.508 -0.811389,-0.23989 -1.495777,-0.56444 -0.684388,-0.33161 -1.100666,-0.881947 -0.409222,-0.55738 -0.409222,-1.47461 0,-0.78316 0.402167,-1.38288 0.409222,-0.60678 1.192388,-0.94545 0.790221,-0.33866 1.93322,-0.33866 0.973666,0 1.785055,0.21166 0.818443,0.21167 1.34761,0.46567 l -0.141111,1.42522 q -0.804333,-0.47978 -1.53811,-0.68439 -0.726722,-0.20461 -1.509888,-0.20461 -0.867833,0 -1.439332,0.32456 -0.564444,0.32455 -0.564444,1.05833 0,0.49389 0.254,0.81139 0.253999,0.31044 0.754943,0.53622 0.500944,0.21872 1.248833,0.4445 1.03011,0.310437 1.770943,0.712607 0.740833,0.39511 1.135943,0.98072 0.395111,0.57856 0.395111,1.43933 0,0.635 -0.239888,1.143 -0.239889,0.508 -0.719667,0.86783 -0.479777,0.359837 -1.206499,0.550337 -0.719666,0.1905 -1.686276,0.1905 z m 8.170321,-0.0565 q -1.086555,0 -1.85561,-0.47977 -0.761999,-0.486837 -1.171221,-1.298227 -0.402167,-0.81844 -0.402167,-1.82033 0,-1.00189 0.402167,-1.81327 0.409222,-0.818447 1.171221,-1.298217 0.769055,-0.48684 1.85561,-0.48684 1.079499,0 1.848554,0.48684 0.769055,0.47977 1.171221,1.298217 0.409222,0.81138 0.409222,1.81327 0,1.00189 -0.409222,1.82033 -0.402166,0.81139 -1.171221,1.298227 -0.769055,0.47977 -1.848554,0.47977 z m 0,-1.128877 q 1.03011,0 1.580443,-0.64912 0.550333,-0.65616 0.550333,-1.82033 0,-1.16416 -0.550333,-1.81327 -0.550333,-0.656167 -1.580443,-0.656167 -1.023055,0 -1.580444,0.656167 -0.550333,0.64911 -0.550333,1.81327 0,1.16417 0.550333,1.82033 0.557389,0.64912 1.580444,0.64912 z m 6.519318,1.128877 q -0.670277,0 -1.065388,-0.23989 -0.388055,-0.24694 -0.557389,-0.627937 -0.169333,-0.381 -0.169333,-0.79728 v -9.059317 h 1.269999 v 8.325547 q 0,0.59266 0.07761,0.889 0.07761,0.29633 0.310444,0.39511 0.239889,0.0988 0.726722,0.0988 l -0.183444,1.015997 z m 4.035776,0 q -0.811388,0 -1.382888,-0.32455 -0.571499,-0.331607 -0.874888,-1.001887 -0.296333,-0.67028 -0.296333,-1.70744 V 82.877762 H 33.7208 v 3.668887 q 0,1.10067 0.373944,1.67922 0.381,0.57856 1.234721,0.57856 0.585611,0 1.086555,-0.28223 0.500944,-0.28222 0.691444,-0.90311 l -0.183444,0.69145 v -5.432777 h 1.269999 v 6.914434 h -1.128888 l -0.254,-1.354657 0.338666,0.22577 q -0.345722,0.64206 -0.846666,0.959557 -0.493888,0.31044 -1.298221,0.31044 z m 7.295441,0 q -0.656166,0 -1.051277,-0.23989 -0.395111,-0.23988 -0.578555,-0.613827 -0.176389,-0.381 -0.176389,-0.79728 v -4.416767 h -1.185332 l 0.112888,-0.98778 h 1.072444 v -1.70744 l 1.269999,-0.127 v 1.83444 h 1.820332 v 0.98778 h -1.820332 v 3.640657 q 0,0.66323 0.07761,0.95956 0.07761,0.29633 0.381,0.37394 0.310444,0.0776 0.994832,0.0776 h 0.324556 l -0.09878,1.015997 z m 2.370664,-0.14111 v -6.914434 h 1.269999 v 6.914434 z m 0,-8.466654 v -1.41111 h 1.269999 v 1.41111 z m 6.011325,8.607764 q -1.086554,0 -1.855609,-0.47977 -0.762,-0.486837 -1.171222,-1.298227 -0.402166,-0.81844 -0.402166,-1.82033 0,-1.00189 0.402166,-1.81327 0.409222,-0.818447 1.171222,-1.298217 0.769055,-0.48684 1.855609,-0.48684 1.0795,0 1.848555,0.48684 0.769055,0.47977 1.171221,1.298217 0.409222,0.81138 0.409222,1.81327 0,1.00189 -0.409222,1.82033 -0.402166,0.81139 -1.171221,1.298227 -0.769055,0.47977 -1.848555,0.47977 z m 0,-1.128877 q 1.030111,0 1.580444,-0.64912 0.550333,-0.65616 0.550333,-1.82033 0,-1.16416 -0.550333,-1.81327 -0.550333,-0.656167 -1.580444,-0.656167 -1.023054,0 -1.580443,0.656167 -0.550333,0.64911 -0.550333,1.81327 0,1.16417 0.550333,1.82033 0.557389,0.64912 1.580443,0.64912 z m 4.741322,0.987767 v -6.914434 h 0.987777 l 0.254,1.326447 -0.493889,-0.211667 q 0.6985,-0.77611 1.361721,-1.016 0.670278,-0.23989 1.305277,-0.23989 1.516943,0 2.166054,0.87489 0.656166,0.874887 0.656166,2.370667 v 3.809987 h -1.269999 v -3.809987 q 0,-1.10067 -0.409222,-1.60867 -0.409222,-0.507997 -1.396999,-0.507997 -0.698499,0 -1.28411,0.310437 -0.578555,0.30339 -0.761999,0.97367 l 0.155222,-0.77611 v 5.418657 z m 9.849546,0.14111 q -0.917221,0 -1.523998,-0.21872 -0.599722,-0.21872 -0.846666,-0.388047 l 0.155222,-1.22767 q 0.225777,0.19756 0.797277,0.45156 0.571499,0.254 1.361721,0.254 0.670277,0 1.023055,-0.22578 0.359833,-0.22578 0.359833,-0.635 0,-0.35983 -0.232833,-0.57856 -0.225778,-0.22577 -0.550333,-0.35277 -0.3175,-0.13406 -0.599722,-0.21167 -0.472722,-0.127 -0.980721,-0.3175 -0.500945,-0.19756 -0.846666,-0.58561 -0.345722,-0.38806 -0.345722,-1.08656 0,-0.52916 0.253999,-1.001877 0.254,-0.47978 0.8255,-0.77611 0.571499,-0.29634 1.516943,-0.29634 0.691444,0 1.121832,0.14817 0.437445,0.14111 0.754944,0.30339 l -0.155222,1.157107 q -0.303388,-0.253997 -0.705555,-0.430387 -0.402166,-0.17639 -0.987777,-0.17639 -0.592666,0 -0.96661,0.22578 -0.373944,0.218717 -0.373944,0.705547 0,0.48684 0.39511,0.69145 0.402167,0.20461 1.213555,0.45155 0.254,0.0706 0.585611,0.20461 0.338666,0.13406 0.656166,0.35984 0.3175,0.22577 0.522111,0.59266 0.211666,0.35984 0.211666,0.90311 0,0.45861 -0.218722,0.93839 -0.218722,0.47272 -0.790222,0.797277 -0.571499,0.32455 -1.629832,0.32455 z" /></g></svg>
