<?xml version="1.0" encoding="UTF-8" standalone="no"?>
<svg
   width="100"
   height="100"
   version="1.1"
   viewBox="0 0 26.458 26.458"
   id="svg1"
   sodipodi:docname="heart.svg"
   inkscape:version="1.3.2 (091e20ef0f, 2023-11-25)"
   xmlns:inkscape="http://www.inkscape.org/namespaces/inkscape"
   xmlns:sodipodi="http://sodipodi.sourceforge.net/DTD/sodipodi-0.dtd"
   xmlns="http://www.w3.org/2000/svg"
   xmlns:svg="http://www.w3.org/2000/svg">
  <defs
     id="defs1" />
  <sodipodi:namedview
     id="namedview1"
     pagecolor="#505050"
     bordercolor="#ffffff"
     borderopacity="1"
     inkscape:showpageshadow="0"
     inkscape:pageopacity="0"
     inkscape:pagecheckerboard="1"
     inkscape:deskcolor="#d1d1d1"
     showgrid="false"
     inkscape:zoom="1.205"
     inkscape:cx="0"
     inkscape:cy="113.69295"
     inkscape:window-width="2304"
     inkscape:window-height="1296"
     inkscape:window-x="0"
     inkscape:window-y="0"
     inkscape:window-maximized="1"
     inkscape:current-layer="svg1" />
  <path
     id="path35"
     style="font-size:10.5832px;line-height:1.25;font-family:'JetBrains Mono';-inkscape-font-specification:'JetBrains Mono';letter-spacing:0px;word-spacing:0px;stroke-width:0.26458"
     d="m 34.271103,71.519328 q -0.04441,0 4.505849,-12.008204 l 4.550246,12.008204 z M 36.912465,54.472562 26.458,80.930562 h 4.28389 l 2.130843,-5.682255 h 11.85283 l 2.153042,5.682255 h 4.261691 l -10.45446,-26.458 z m 14.61437,0.333423 c -2.271131,2.291371 -4.540667,4.584327 -6.812815,6.874688 0.807521,0.873142 1.647599,1.714858 2.480043,2.564258 0.974442,-0.964788 1.947759,-1.930712 2.921743,-2.895962 0,2.413015 0,4.826031 0,7.239046 1.160103,0 2.320208,0 3.48031,0 0,-2.413015 0,-4.826031 0,-7.239046 0.975101,0.965853 1.949815,1.932095 2.925181,2.897681 0.827096,-0.853205 1.653266,-1.707307 2.480043,-2.560821 -2.381088,-2.404837 -4.763364,-4.808498 -7.14452,-7.213267 -0.109995,0.111142 -0.219989,0.222283 -0.329985,0.333423 z" />
  <path
     id="path32"
     style="font-size:10.5832px;line-height:1.25;font-family:'JetBrains Mono';-inkscape-font-specification:'JetBrains Mono';letter-spacing:0px;word-spacing:0px;stroke-width:0.26458"
     d="m 2.5215031,71.519328 q -0.04437,0 4.5058499,-12.008204 l 4.550245,12.008204 z M 5.162865,54.472562 -5.2916,80.930562 h 4.283889 l 2.130844,-5.682255 h 11.85283 l 2.153042,5.682255 h 4.261691 l -10.45446,-26.458 z m 13.207428,0.465816 c 0,2.257461 0,4.514922 0,6.772382 -0.975217,-0.965969 -1.950049,-1.932327 -2.925531,-2.89803 -0.82751,0.853577 -1.653162,1.708954 -2.480342,2.562849 2.381847,2.405225 4.765183,4.808975 7.147098,7.214134 2.379716,-2.403347 4.760615,-4.805523 7.140222,-7.208977 -0.80453,-0.87563 -1.647507,-1.714468 -2.476904,-2.566287 -0.974926,0.965114 -1.949166,1.930918 -2.923814,2.896311 0,-2.412732 0,-4.825466 0,-7.238198 -1.160242,0 -2.320486,0 -3.480729,0 0,0.155271 0,0.310543 0,0.465816 z" />
  <path
     id="path28"
     style="font-size:10.5832px;line-height:1.25;font-family:'JetBrains Mono';-inkscape-font-specification:'JetBrains Mono';letter-spacing:0px;word-spacing:0px;stroke-width:0.26458"
     d="m -17.371696,21.834138 h -17.109508 v 6.385749 h 17.109508 z m 1.44692,13.758161 c -0.424889,0 -0.775136,-0.132061 -1.05074,-0.396183 -0.26412,-0.275605 -0.39618,-0.625851 -0.39618,-1.05074 0,-0.424889 0.13206,-0.780877 0.39618,-1.067966 0.275604,-0.298571 0.625851,-0.447857 1.05074,-0.447857 0.424891,0 0.780879,0.149286 1.067966,0.447857 0.298571,0.287089 0.447857,0.643077 0.447857,1.067966 0,0.424889 -0.149286,0.775135 -0.447857,1.05074 -0.287087,0.264122 -0.643075,0.396183 -1.067966,0.396183 z m -4.409666,9.737092 h -11.184016 v -6.774349 h 11.184016 z m 4.409666,-15.593681 h -20.003348 c -1.251702,0 -2.302443,0.42489 -3.152223,1.27467 -0.838295,0.838295 -1.257443,1.883294 -1.257443,3.134996 v 8.290172 h 5.856586 v 5.85659 h 17.109508 v -5.85659 h 5.856586 v -8.290172 c 0,-1.251702 -0.424889,-2.296701 -1.274667,-3.134996 -0.838297,-0.84978 -1.883297,-1.27467 -3.134999,-1.27467 z"
     sodipodi:nodetypes="cccccscscscscscccccssssccccccscs" />
  <path
     id="path25"
     style="font-size:10.5832px;line-height:1.25;font-family:'JetBrains Mono';-inkscape-font-specification:'JetBrains Mono';letter-spacing:0px;word-spacing:0px;stroke-width:0.26458"
     d="m 42.81439,0.00720524 c -3.760048,0.13386992 -7.405028,2.21405436 -9.362314,5.43958036 -1.007394,1.6314061 -1.585609,3.4998317 -1.681437,5.3930164 -0.194469,3.119019 0.967611,6.28567 3.136585,8.536224 1.976564,1.991634 3.924122,4.01316 5.948917,5.956802 0.496522,0.540775 1.121837,0.995701 1.870855,1.081745 1.055745,0.187598 2.163157,-0.244416 2.84307,-1.067496 2.09409,-2.101005 4.209508,-4.182429 6.266372,-6.319495 2.641978,-2.964698 3.559576,-7.3628 2.264497,-11.1246779 C 52.958468,4.4419364 50.114911,1.5671516 46.608819,0.5155909 45.369632,0.13121681 44.108948,-0.03823032 42.81439,0.00720524 Z m 0.395583,3.44166386 c 3.047189,-0.023627 6.016041,1.8520509 7.272931,4.6333924 1.310991,2.7558915 0.869769,6.2401595 -1.109613,8.5679265 -0.930312,1.042618 -1.969718,1.983684 -2.941304,2.988088 -1.074497,1.073845 -2.147686,2.149001 -3.223011,3.222016 -2.054624,-2.085883 -4.148793,-4.135593 -6.16307,-6.25953 -1.825852,-2.146131 -2.340019,-5.283089 -1.345414,-7.9126154 0.753092,-2.1276278 2.476049,-3.8611413 4.578526,-4.6695478 0.928941,-0.3742845 1.92879,-0.5726666 2.930955,-0.5697297 z m -0.301918,4.2138958 c -1.940849,0.072969 -3.655322,1.8306834 -3.619023,3.7851721 -0.03683,1.750432 1.254806,3.421042 2.972994,3.788229 1.677942,0.440103 3.5439,-0.473276 4.294279,-2.022373 C 47.338935,11.733037 46.985639,9.7651583 45.72008,8.6629544 44.967167,7.9624876 43.935019,7.5934526 42.908055,7.6627649 Z" />
  <path
     id="path23"
     style="font-size:10.5832px;line-height:1.25;font-family:'JetBrains Mono';-inkscape-font-specification:'JetBrains Mono';letter-spacing:0px;word-spacing:0px;stroke-width:0.26458"
     d="m 13.229,-5e-7 q -3.586734,0 -6.645553,1.770078 Q 3.524629,3.5246273 1.754551,6.5834458 -2e-6,9.626736 -2e-6,13.229001 q 0,2.608535 0.978203,5.0618 0.993728,2.437739 2.872494,4.316506 1.878767,1.878767 4.3165061,2.856966 2.4532639,0.993728 5.0617989,0.993728 2.608535,0 5.046274,-0.993728 2.453264,-0.978199 4.332031,-2.856966 1.878766,-1.878767 2.856969,-4.316506 0.993728,-2.453264 0.993728,-5.061799 0,-2.608538 -0.993728,-5.0618026 Q 24.486071,5.7139351 22.607305,3.8506938 20.728538,1.9719269 18.275274,0.9937274 15.837535,-5e-7 13.229,-5e-7 Z m -2.996708,7.6858628 q 0.853982,0 1.630332,0.3881765 0.791878,0.3881736 1.366376,0.9781995 0.574498,-0.6366077 1.335322,-0.9937277 0.760822,-0.3726483 1.645861,-0.3726483 1.5527,0 2.608535,1.071363 1.055838,1.0713631 1.055838,2.5308997 0,1.754552 -1.5527,3.617791 -0.978203,1.242158 -4.114654,4.037018 L 13.229,19.874555 12.235272,18.942934 Q 9.1143471,16.148074 8.1361441,14.905916 6.583447,13.027149 6.583447,11.288125 q 0,-1.4905902 1.0403071,-2.5464279 1.055837,-1.0558348 2.6085379,-1.0558348 z" />
  <path
     id="path20"
     style="font-size:10.5832px;line-height:1.25;font-family:'JetBrains Mono';-inkscape-font-specification:'JetBrains Mono';letter-spacing:0px;word-spacing:0px;stroke-width:0.26458"
     d="m -31.994915,69.297738 q 0.06211,0.186321 0.06211,0.388177 0,0.667661 -0.232894,1.28874 -0.232894,0.62108 -0.745296,1.055835 -0.512391,0.41923 -1.117945,0.605554 -0.791875,0.310539 -1.739021,0 -0.667662,-0.248428 -1.304269,-0.791878 0.853985,-0.248428 1.459536,-0.807404 0.605554,-0.558972 0.760825,-1.350847 0.06211,-0.574501 -0.155283,-1.568229 l -0.124214,-0.698714 q -0.186321,-1.180052 0.186322,-2.096145 0.388176,0.729769 0.652135,1.086892 0.263963,0.341591 0.885039,0.900564 0.62108,0.558972 0.869511,0.869513 0.41923,0.481337 0.543447,1.117942 z m 9.704374,-2.919073 q 0,3.586734 -1.770077,6.645553 -1.754553,3.04329 -4.813371,4.813368 -3.058816,1.770078 -6.645553,1.770078 -3.586738,0 -6.645556,-1.770078 -3.058818,-1.770078 -4.828893,-4.813368 -1.754553,-3.058819 -1.754553,-6.645553 0,-3.602265 1.754553,-6.645556 1.770075,-3.058818 4.828893,-4.813368 3.058818,-1.770078 6.645556,-1.770078 3.586737,0 6.645553,1.770078 3.058818,1.75455 4.813371,4.813368 1.770077,3.058819 1.770077,6.645556 z m -6.397124,0.729768 -0.124214,-0.232894 q -0.186321,-0.51239 -0.791879,-1.28874 v 0 q -0.186321,-0.248428 -0.698714,-0.77635 l -0.124214,-0.124214 q -0.310542,-0.248428 -0.993728,-0.729772 -0.791879,-0.636604 -1.180052,-0.916092 -1.117945,-1.180052 -1.366376,-2.825913 -0.248428,-1.661388 0.481337,-3.089872 -1.304269,0.310539 -2.608535,1.366376 -2.034037,1.614808 -2.717227,4.161235 -0.683186,2.546428 0.232894,4.968639 0.06211,0.248428 0.06211,0.372648 0,0.310538 -0.372648,0.481337 -0.35712,0.155253 -0.605551,-0.09317 -0.124214,-0.06211 -0.186321,-0.201856 -0.853986,-1.055837 -1.024781,-2.515374 -0.155283,-1.459536 0.481337,-2.763805 -1.304269,1.055834 -1.987456,2.701698 -0.683189,1.630332 -0.590026,3.322775 v 0.248428 q 0.124214,0.853985 0.310539,1.304266 0.186321,0.729768 0.77635,1.81666 0.791878,1.304269 2.189307,2.189304 1.39743,0.885039 2.95013,1.086892 1.75455,0.248428 3.338303,-0.139749 1.75455,-0.450283 2.934602,-1.490593 1.490593,-1.304266 1.90982,-3.183032 0.434758,-1.894295 -0.295001,-3.648845 z" />
  <path
     id="text1"
     style="font-size:10.5832px;line-height:1.25;font-family:'JetBrains Mono';-inkscape-font-specification:'JetBrains Mono';letter-spacing:0px;word-spacing:0px;stroke-width:0.26458"
     d="m -41.552745,16.120887 -5.589718,-3.338306 -5.589721,3.338306 1.490593,-6.3971249 -4.968639,-4.285449 6.521339,-0.5123906 2.546428,-6.0089481 2.546427,5.946838 6.521336,0.5745007 -4.968638,4.285449 z m -5.589718,-21.1788238 q -3.586738,0 -6.645556,1.7700778 -3.058819,1.7545498 -4.828896,4.8133683 -1.75455,3.0432902 -1.75455,6.6455557 0,2.608535 0.978199,5.061799 0.993728,2.437739 2.872495,4.316506 1.878766,1.878767 4.316505,2.856966 2.453268,0.993728 5.061803,0.993728 2.608535,0 5.046274,-0.993728 2.453264,-0.978199 4.33203,-2.856966 1.878767,-1.878767 2.856967,-4.316506 0.993727,-2.453264 0.993727,-5.061799 0,-2.6085378 -0.993727,-5.0618021 -0.9782,-2.45326426 -2.856967,-4.3165056 -1.878766,-1.8787669 -4.33203,-2.8569664 -2.437739,-0.9937277 -5.046274,-0.9937277 z" />
  <path
     id="text40"
     style="font-size:10.5832px;line-height:1.25;font-family:'JetBrains Mono';-inkscape-font-specification:'JetBrains Mono';letter-spacing:0px;word-spacing:0px;stroke-width:0.264581"
     d="m -81.00942,52.302326 1.98514,-1.985141 -2.63673,-2.66706 -1.98517,2.045757 v 0.924378 h 1.63661 v 1.682066 z m 7.60719,-11.926006 c 0.18184,-0.161638 0.17677,-0.333381 -0.0152,-0.515229 -0.18184,-0.191929 -0.3637,-0.202047 -0.54554,-0.03029 l -6.09181,6.076658 c -0.18181,0.202047 -0.18181,0.39905 0,0.590998 0.19208,0.181842 0.37882,0.171755 0.56069,-0.03032 z m -4.02312,-6.639301 c -2.70433,0.0035 -5.40908,-0.01123 -8.11314,0.01039 -1.40244,0.06097 -2.74855,0.745749 -3.65891,1.808441 -0.79975,0.913126 -1.25422,2.115508 -1.25502,3.329764 -0.0163,1.005869 0.002,2.012121 -0.006,3.018178 0.003,4.449677 -0.008,8.899582 0.008,13.349115 0.0444,1.362099 0.69102,2.675413 1.70454,3.579371 0.95166,0.880653 2.2444,1.379146 3.54206,1.353296 2.33786,0.01059 4.67594,0.0012 7.0139,0.0048 2.57163,-0.003 5.1436,0.0071 7.71503,-0.01019 1.31163,-0.05411 2.57993,-0.653556 3.47622,-1.609315 0.8663,-0.884981 1.41536,-2.087253 1.44625,-3.331575 0.028,-0.830806 -0.002,-1.662653 0.0102,-2.493914 0.004,-2.960989 -0.01,-5.92263 0.01,-8.883206 0.0291,-0.502426 -0.54779,-0.852123 -1.00374,-0.753867 -0.38605,0.106956 -0.5975,0.481525 -0.88433,0.730905 -0.26302,0.279923 -0.56117,0.533139 -0.79587,0.835577 -0.16383,0.342263 -0.0553,0.73151 -0.0873,1.095182 -0.004,3.145713 0.0102,6.291903 -0.01,9.437317 -0.0702,0.790784 -0.52575,1.499515 -1.18977,1.927632 -0.4325,0.288821 -0.96048,0.395702 -1.47483,0.364541 -3.70811,0.01137 -7.41629,0.0022 -11.12442,0.0052 -1.12558,-0.0057 -2.25201,0.0096 -3.37705,-0.01289 -1.26812,-0.119805 -2.33749,-1.325679 -2.26059,-2.605985 -2.4e-4,-5.348267 -0.007,-10.696854 0.004,-16.044917 0.0293,-0.949935 0.68008,-1.820826 1.5564,-2.167737 0.60295,-0.273022 1.27552,-0.169774 1.91547,-0.189466 2.49859,0.0025 4.99763,-0.0074 7.49594,0.0082 0.35067,0.05803 0.72739,0.224125 1.07163,0.0443 0.33542,-0.17476 0.53755,-0.513669 0.81439,-0.760416 0.26436,-0.245448 0.55477,-0.574799 0.46254,-0.965732 -0.066,-0.369494 -0.38023,-0.652275 -0.73926,-0.731594 -0.72002,-0.275107 -1.49925,-0.367517 -2.26643,-0.341457 z m 3.7352,3.608548 5.00074,4.955278 -11.63809,11.668395 h -5.00074 v -5.015894 z m 7.69811,2.28822 -1.57599,1.560835 -5.00074,-4.97043 1.57599,-1.621452 c 0.33338,-0.333384 0.72738,-0.495025 1.18199,-0.484922 0.45461,0 0.84861,0.161637 1.182,0.484922 l 2.63675,2.682213 c 0.33338,0.333384 0.50007,0.727381 0.50007,1.181993 0,0.444512 -0.16668,0.833457 -0.50007,1.166841 z" />
</svg>
