<?xml version="1.0" encoding="UTF-8"?>
<svg width="101.5" height="100" version="1.1" viewBox="0 0 26.856 26.458" xmlns="http://www.w3.org/2000/svg">
  <path d="m21.92 18.77q2.297-3.5301 1.4279-7.6364-0.87224-4.1212-4.4024-6.4182-3.5183-2.3152-7.6395-1.4429-4.1062 0.86903-6.3999 4.4143-2.2818 3.527-1.4097 7.6482 0.86903 4.1062 4.3842 6.4063 3.527 2.2818 7.6332 1.4128 4.1212-0.87225 6.4063-4.3842zm-11.053-18.759c-0.07522-0.015534-0.15823-0.013734-0.24858 0.00532-0.17212 0.036427-0.2878 0.12362-0.34834 0.26229l-0.86888 1.9728c0.50947-0.1802 1.0388-0.3313 1.591-0.4482 0.56224-0.11899 1.1178-0.19857 1.6654-0.24005l-1.5882-1.4529c-0.06011-0.05023-0.12726-0.083603-0.20247-0.099164zm7.9453 0.83338c-0.11631-0.01612-0.22132 0.00655-0.31641 0.067128l-1.8537 1.071c1.0341 0.30993 2.0372 0.78184 3.0112 1.4095l-0.4557-2.1561c-0.038255-0.18068-0.12681-0.30168-0.26551-0.36225-0.04112-0.013734-0.08104-0.024181-0.11977-0.029568zm-15.006 3.1768c-0.15721-0.020908-0.29463 0.025981-0.41413 0.14118-0.10905 0.12198-0.14596 0.26993-0.10953 0.44203l0.45287 2.1377c0.63789-0.96166 1.3628-1.7947 2.1793-2.4927zm18.796 1.9954c0.69602 0.87709 1.2489 1.8519 1.6587 2.9254l0.89758-2.0366c0.056883-0.1559 0.041241-0.29558-0.048256-0.42052-0.082625-0.13532-0.19827-0.21424-0.34689-0.23676zm-20.505 4.3457-1.8588 1.0766c-0.13541 0.08257-0.21278 0.20206-0.23342 0.3593-0.022394 0.14864 0.024181 0.28238 0.13926 0.40184l1.6277 1.4825c-0.058849-1.1383 0.049562-2.2449 0.3254-3.3201zm22.974 2.386c0.06176 1.1509-0.04885 2.2706-0.33202 3.3588l1.8819-1.082c0.13532-0.0826 0.21281-0.20723 0.23166-0.37308 0.01702-0.17441-0.031-0.31717-0.1444-0.42804zm-22.488 4.7783-0.88885 1.992c-0.058768 0.14744-0.04532 0.29759 0.040942 0.45009 0.092959 0.14279 0.21386 0.2255 0.36253 0.24728l2.1345 0.22431c-0.69135-0.8746-1.2417-1.8457-1.6491-2.914zm20.524 2.1697c-0.64377 0.96906-1.3792 1.8069-2.2094 2.5079l2.154 0.22616c0.13637 0.0068 0.27236-0.04852 0.40901-0.16737 0.10045-0.12013 0.13503-0.25754 0.10224-0.41245zm-15.91 3.3868 0.45166 2.1345c0.043179 0.16152 0.13411 0.27203 0.27283 0.33269 0.18173 0.05124 0.32953 0.04891 0.44279-0.01159l1.8629-1.0716c-1.0395-0.3021-2.049-0.76512-3.0302-1.3842zm10.276 1.0763c-0.52602 0.18758-1.0748 0.343-1.6471 0.46411-0.56163 0.11884-1.1164 0.19836-1.6639 0.2402l1.6268 1.4763c0.11352 0.11204 0.2599 0.14498 0.43863 0.09726 0.18068-0.03822 0.30018-0.12688 0.36076-0.26576z" fill="#ffffff" stroke-width=".26459"/>
</svg>
