<?xml version="1.0" encoding="UTF-8"?>
<svg width="86.676" height="100" version="1.1" viewBox="0 0 22.933 26.458" xmlns="http://www.w3.org/2000/svg">
  <path d="m11.065 0.0072052c-3.76 0.13387-7.405 2.2141-9.3623 5.4396-1.0074 1.6314-1.5856 3.4998-1.6814 5.393-0.19447 3.119 0.96761 6.2857 3.1366 8.5362 1.9766 1.9916 3.9241 4.0132 5.9489 5.9568 0.49652 0.54078 1.1218 0.9957 1.8709 1.0817 1.0557 0.1876 2.1632-0.24442 2.8431-1.0675 2.0941-2.101 4.2095-4.1824 6.2664-6.3195 2.642-2.9647 3.5596-7.3628 2.2645-11.125-1.1425-3.461-3.986-6.3358-7.4921-7.3873-1.2392-0.38437-2.4999-0.55382-3.7944-0.50839zm0.39558 3.4417c3.0472-0.023627 6.016 1.8521 7.2729 4.6334 1.311 2.7559 0.86977 6.2402-1.1096 8.5679-0.93031 1.0426-1.9697 1.9837-2.9413 2.9881-1.0745 1.0738-2.1477 2.149-3.223 3.222-2.0546-2.0859-4.1488-4.1356-6.1631-6.2595-1.8259-2.1461-2.34-5.2831-1.3454-7.9126 0.75309-2.1276 2.476-3.8611 4.5785-4.6695 0.92894-0.37428 1.9288-0.57267 2.931-0.56973zm-0.30192 4.2139c-1.9408 0.072969-3.6553 1.8307-3.619 3.7852-0.036834 1.7504 1.2548 3.421 2.973 3.7882 1.6779 0.4401 3.5439-0.47328 4.2943-2.0224 0.78263-1.4808 0.42933-3.4486-0.83622-4.5508-0.75291-0.70047-1.7851-1.0695-2.812-1.0002z" stroke-width=".26458"/>
</svg>
