<?xml version="1.0" encoding="UTF-8"?>
<svg width="108.11" height="100" version="1.1" viewBox="0 0 28.603 26.458" xmlns="http://www.w3.org/2000/svg">
  <path d="m0.43052 3.7445q-0.43048-0.6054-0.43048-1.5247t0.44642-1.5695q0.46236-0.65025 1.0842-0.65025h25.542q0.65368 0 1.0842 0.65025 0.44642 0.65025 0.44642 1.5695t-0.46236 1.5247q-0.44642 0.58297-1.0682 0.58297h-25.542q-0.65368 0-1.1001-0.58297zm0 11.009q-0.43048-0.6054-0.43048-1.5247t0.44642-1.5023q0.46236-0.6054 1.0842-0.6054h25.542q0.65368 0 1.0842 0.6054 0.44642 0.58297 0.44642 1.5023 0 0.9193-0.46236 1.5247-0.44642 0.58297-1.0682 0.58297h-25.542q-0.65368 0-1.1001-0.58297zm1.1001 7.3768h25.542q0.65368 0 1.0842 0.65025 0.44642 0.65025 0.44642 1.5247 0 0.87447-0.46236 1.5247-0.44642 0.62782-1.0682 0.62782h-25.542q-0.65368 0-1.1001-0.62782-0.43048-0.65025-0.43048-1.5247 0-0.87447 0.43048-1.5247 0.44642-0.65025 1.1001-0.65025z" fill="#ffffff"/>
</svg>
