<?xml version="1.0" encoding="UTF-8"?>
<svg width="100" height="100" version="1.1" viewBox="0 0 26.458 26.458" xmlns="http://www.w3.org/2000/svg">
  <path d="m0 0h26.458c-0.41842 13.945-12.127 26.009-26.458 26.458z" fill="#ffff00" stroke-width="0"/>
  <path d="m26.458 0c-2.303 14.427-14.426 9.03-19.001 10.532 7.0451 3.973 1.0454 15.07-6.6212 15.879 13.303-0.84084 25.622-15.264 25.622-26.41zm-26.447 26.458c-0.0036 5e-6 -0.0072 5.17e-4 -0.01085 5.17e-4 0.01284 0 0.02541-5.01e-4 0.03824-5.17e-4z" fill="#000000"/>
  <path d="m26.458 0c-1.0917 12.278-9.6479 8.1027-16.072 6.1065 6.2199 12.299-1.9433 19.672-9.5574 20.304 12.905 0 25.629-9.8477 25.629-26.41zm-26.449 26.458c-0.0032 8.5e-5 -0.0066 4.35e-4 -0.0098 5.17e-4 0.01284 0 0.02541-5.01e-4 0.03824-5.17e-4z" fill="#ff0000"/>
</svg>
