<?xml version="1.0" encoding="UTF-8"?>
<svg width="100" height="100" version="1.1" viewBox="0 0 26.458 26.458" xmlns="http://www.w3.org/2000/svg">
  <path d="m0 0h26.458c-0.41842 13.945-12.127 26.009-26.458 26.458z" fill="#ffff00" stroke-width="0"/>
  <path d="m26.435 0.043408c0 0.19919-0.0087 0.40134-0.01447 0.60254 9e-3 -0.19831 0.01447-0.39854 0.01447-0.60254zm-0.01447 0.60254c-1.5765 11.246-17.745 13.089-19.808 4.9314-1.0008 10.838 1.0713 19.323-6.6124 20.675v0.20567h0.92603c0.18898-0.01088 0.37685-0.01829 0.56895-0.03927 16.241-1.774 24.621-15.113 24.926-25.773z" fill="#000000"/>
  <path d="m26.458 0c0 11.773-14.287 14.117-16.071 6.1064-2.62 11.917-2.5834 20.352-10.387 20.352 17.325 0 26.458-14.923 26.458-26.458z" fill="#ff0000" stroke-width="0"/>
</svg>
