<?xml version="1.0" encoding="UTF-8"?>
<svg width="100" height="100" version="1.1" viewBox="0 0 26.458 26.458" xmlns="http://www.w3.org/2000/svg">
  <path d="m13.185 0.058993c-6.298-0.087258-12.225 4.9647-13.035 11.231-0.1585 1.3411-0.35287 2.7966 0.17566 4.0756 1.0256 1.6996 3.5858 1.5421 4.9555 0.36213 1.0334-1.0389 2.635-1.5975 4.0241-0.94473 1.9435 0.79639 2.9932 3.5302 1.5482 5.2339-0.89391 0.97327-1.6282 2.208-1.4609 3.5791 0.070066 1.5108 1.3205 2.9548 2.9092 2.8474 5.5019 0.43464 11.03-2.9835 13.113-8.093 2.054-4.6581 1.0465-10.468-2.5257-14.115-2.4449-2.6284-5.9763-4.246-9.5664-4.2606zm0 24.586c-1.6207 0.55467-2.5701-1.2912-1.5886-2.4911 0.68508-1.0037 1.6044-1.9228 1.7221-3.2005 0.67353-3.188-2.122-6.5852-5.4078-6.3923-1.5473 0.034529-3.0221 0.79716-4.0235 1.963-1.3255 1.0452-2.495-0.61746-1.9481-1.8991 0.31238-5.9952 6.0632-11.153 12.084-10.615 5.6868 0.34252 10.644 5.5301 10.546 11.263 0.08485 5.0631-3.6209 9.9419-8.5942 11.052-0.912 0.22245-1.8519 0.32884-2.7905 0.32052zm1.9003-18.907c0.13483 1.9206-2.895 2.6099-3.6258 0.82438-0.82134-1.565 1.0369-3.4567 2.5912-2.5586 0.63731 0.31905 1.0819 1.0129 1.0346 1.7342zm5.6422 13.171c0.16042 1.7787-2.4934 2.6554-3.4587 1.1636-1.0404-1.3857 0.60688-3.6217 2.2278-2.8526 0.67873 0.27139 1.2184 0.94314 1.2309 1.689zm-13.185-9.3654c1.6128 0.12868 2.4868-2.025 1.4176-3.164-1.1399-1.4331-3.7286-0.24546-3.2942 1.5691 0.14141 0.88858 0.94354 1.6678 1.8766 1.5949zm13.185-1.9321c0.1604 1.771-2.4851 2.6558-3.4591 1.1838-0.9969-1.3364 0.4365-3.5866 2.0832-2.9886 0.78271 0.21693 1.4043 0.97949 1.3759 1.8048zm1.9003 5.6782c0.13482 1.9206-2.8949 2.6099-3.6258 0.82438-0.82133-1.5649 1.0369-3.4567 2.5912-2.5586 0.6373 0.31905 1.0819 1.0129 1.0346 1.7342z" fill="#ffffff" stroke-width=".26458"/>
</svg>
