<?xml version="1.0" encoding="UTF-8"?>
<svg width="76.895" height="100" version="1.1" viewBox="0 0 20.345 26.458" xmlns="http://www.w3.org/2000/svg">
  <path d="m-41.363 19.738c0.0059 0.02573-0.0017 0.022 0 0z" color="#000000" fill="#000000" stroke-linecap="round" stroke-linejoin="round" style="-inkscape-stroke:none"/>
  <path d="m16.58 9.1964c-0.92702-0.07652-0.68068 1.151-1.2585 1.5858-0.35752 0.45367-1.0866 1.3655-1.3204 0.35522-0.31918-0.58785-0.705-1.3584-1.482-1.3487-0.85108 0.05571-1.5085 0.71048-2.1472 1.2082-0.39959 0.31734-1.0875 1.167-1.2483 1.1839 0.44825-0.62231 0.4538-2.0124-0.64063-1.6734-0.68978 0.4902-1.1765 1.2251-1.8803 1.7097-0.64191 0.49346-1.3641 0.9108-2.1623 1.0646-0.66244 0.09748-1.728 0.74309-0.9478 1.433 0.62802 0.32142 1.2484-0.30884 1.8868-0.33173 0.82757-0.28706 1.4996-0.86022 2.1509-1.4248-0.39541 0.59555 0.05254 1.5813 0.83844 1.3166 0.83568-0.314 1.5662-0.85558 2.1051-1.5669 0.60338-0.62825 1.2362-1.2764 2.0457-1.6304 0.22959 0.45346 0.60231 1.2456 1.0504 1.701 0.72678 0.55891 1.6503-0.02419 2.1916-0.5706 0.6645-0.67668 1.3876-1.5245 1.3407-2.5275-0.05711-0.247-0.27168-0.44569-0.52203-0.48405zm-10.992 4.3295c0.049768 0.03942 0.048612 0.21975 0 0zm11.297 0.87934c-0.72886-0.51924-1.1762 0.47961-1.584 0.92433-0.67091 0.84895-1.7523 1.1897-2.6234 1.7809-0.21282-0.49178-1.3015-0.31864-1.0992-0.43954-0.48797-0.60254-1.3019-0.23404-1.7468 0.21217-0.5423 0.44941-1.0226 0.97413-1.5935 1.3878 0.11934-0.65186-0.14979-1.584-0.97495-1.4807-0.88999 0.13461-1.4 1.0931-2.3028 1.1868-0.58157-0.31608-1.8153-0.77176-1.7236 0.37042 0.40079 0.76014 1.4944 1.0464 2.2997 0.83666 0.50403-0.08304 1.126-0.68994 1.4215-0.6907-0.09905 0.62169 0.19232 1.4856 0.95969 1.4019 0.91734-0.15438 1.4948-0.98732 2.1909-1.5281 0.38716-0.28716 0.72819-0.90534 1.142-0.37887 0.6615-0.16883 0.38668 0.98493 1.1827 0.81964 0.61727-0.21936 1.0117-0.79968 1.6427-1.0259 0.89319-0.49016 1.8186-1.0045 2.4101-1.8639 0.32296-0.42198 0.99683-1.0011 0.3989-1.5128zm-7.7614-10.283c-1.1736 0.24608-2.1071 1.0753-3.1187 1.6718-0.59582 0.32122-1.1851 0.78388-1.9016 0.70685-1.0508-0.27284-1.1722 1.4919-0.091333 1.293 1.13 0.11998 2.0895-0.56845 3.0133-1.1075 0.30169-0.13052 1.4464-1.1077 0.89069-0.34306-0.55295 0.85617-1.1388 1.6981-1.7542 2.5052-0.56549 0.71881 0.29948 1.1935 0.91599 0.82424 0.78932-0.47139 1.5379-1.0519 2.4489-1.2702-0.07477 0.72371 0.78477 0.99464 1.3516 0.77794 1.5082-0.10674 2.8551-0.84208 4.2911-1.2359 0.61406 0.40764 1.6104 0.17694 1.9267-0.49132 0.23227-0.92405-0.94361-0.8599-1.319-0.64429-0.75165-0.39763-1.5476 0.13914-2.2849 0.32833-0.86872 0.3201-1.7362 0.68347-2.6709 0.74617 0.07791-0.84962-0.99544-1.0352-1.6019-0.74032-0.83071 0.42633 0.21628-0.60609 0.32415-0.96766 0.31166-0.57442 0.83619-1.5491 0.05397-1.9797-0.15145-0.05441-0.31162-0.10591-0.47384-0.07373zm-5.5781-4.122c-0.99497 0-1.8347 0.34227-2.5193 1.0268-0.68454 0.68454-1.0268 1.5243-1.0268 2.5193v19.366c0 0.99497 0.34227 1.8347 1.0268 2.5193 0.68454 0.68454 1.5243 1.0268 2.5193 1.0268h10.686l6.1131-6.1131v-16.799c0-0.99497-0.34227-1.8347-1.0268-2.5193-0.68454-0.68454-1.5243-1.0268-2.5193-1.0268zm0.26267 2.0059h12.716c0.50147 0 0.92732 0.17512 1.2775 0.52534 0.35819 0.35023 0.53728 0.77608 0.53728 1.2775v15.534h-1.5402c-0.99497 0-1.8387 0.35023-2.5312 1.0507-0.6925 0.70046-1.0388 1.5402-1.0388 2.5193v1.5402h-9.4204c-0.50147 0-0.92732-0.17511-1.2775-0.52534-0.35023-0.35023-0.52535-0.78006-0.52535-1.2895v-18.829c0-0.50146 0.17511-0.92731 0.52535-1.2775 0.35023-0.35023 0.77608-0.52534 1.2775-0.52534z" color="#000000" fill="#000000" stroke-linecap="round" stroke-linejoin="round" stroke-width="1.0001"/>
</svg>
