<?xml version="1.0" encoding="UTF-8"?>
<svg width="100" height="100" version="1.1" viewBox="0 0 26.458 26.458" xmlns="http://www.w3.org/2000/svg">
  <path d="m3.8787 16.017c1.3875-0.0041 3.8165-0.21631 3.8137-1.5986-0.0027881-1.3823-2.4285-1.5764-3.8137-1.5805-1.3852-0.0041-3.8759 0.17804-3.8787 1.5804-0.0027881 1.4024 2.4912 1.6028 3.8787 1.5987zm0.9168-16.017h-1.8986v10.547h1.8986zm9.3313 0h-1.7956v2.8911h1.7956zm-1.7956 10.652h1.7956v15.806h-1.7956zm-7.5357 7.6556h-1.8986v8.1503h1.8986zm8.466-9.9466c1.3875-0.0041 3.8165-0.21631 3.8137-1.5986-0.0028-1.3823-2.4285-1.5764-3.8137-1.5805-1.3852-0.0041-3.8759 0.17804-3.8787 1.5804-0.00279 1.4024 2.4912 1.6028 3.8787 1.5987zm10.3-8.3611h-1.8986v14.885h1.8986zm-1.8986 22.646h1.8986v3.8116h-1.8986zm-16.867-22.646h-1.8986v10.547h1.8986zm9.3313 0h-1.7956v2.8911h1.7956zm-1.7956 10.652h1.7956v15.806h-1.7956zm-7.5357 7.6556h-1.8986v8.1503h1.8986zm17.849 2.0477c1.3875-0.0041 3.8165-0.21631 3.8137-1.5986-0.0028-1.3823-2.4285-1.5764-3.8137-1.5805-1.3852-0.0041-3.8759 0.17804-3.8787 1.5804-0.0028 1.4024 2.4912 1.6028 3.8787 1.5987zm0.9168-20.355h-1.8986v14.885h1.8986zm-1.8986 22.646h1.8986v3.8116h-1.8986z" fill="#ffffff" stroke-width=".26458"/>
</svg>
