<?xml version="1.0" encoding="UTF-8"?>
<svg width="74.041" height="100" version="1.1" viewBox="0 0 19.59 26.458" xmlns="http://www.w3.org/2000/svg">
  <path d="m9.8581 1.8845c4.2437-0.053247 8.0943 3.8087 7.8697 8.0823 0.0077 2.6696-1.5024 5.1269-3.6132 6.6799-1.4561 0.76112-1.4486 3.1146-2.783 3.5365-1.5545-0.18354-2.079 0.17442-3.6258-0.14291-0.23694-2.2657-2.5672-3.6644-4.0521-5.1761-2.7918-3.201-2.2281-8.6378 1.174-11.197 1.4065-1.1525 3.2074-1.8124 5.0304-1.7829zm-0.38564-1.8607c-5.3155-0.067914-9.972 5.0579-9.4293 10.344 0.12472 3.0824 1.9241 5.9031 4.3886 7.6791 1.622 1.5204 0.86975 3.879 1.2233 5.8003 0.63864 1.1201 2.3221 0.92469 2.9241 2.2799 1.2116 0.77183 2.9467 0.11757 3.5021-1.1714 1.7546-0.14172 2.3661-1.4707 1.9908-3.0465-0.4007-2.1117 0.95018-3.8085 2.469-5.0803 2.2752-2.0179 3.3433-5.1314 2.9793-8.1244-0.32898-4.9207-5.1307-9.0588-10.048-8.6807zm-1.4227 5.0268c-0.97743 0.48855-0.29402 2.6587-2.1078 2.246-2.0944 0.47823 1.098 1.9028-0.246 3.1912-1.421 1.1406 0.43187 1.5576 1.4053 1.7432 0.43369 1.0487 0.52218 2.9053 1.9543 1.4087 1.1689-1.1994 2.6519 1.8481 3.1084-0.20359-0.75694-1.9652 3.8488-1.0826 1.7085-3.0801-0.97455-1.1205 1.9187-3.3182-0.78562-3.0521-1.4285-0.28787-0.53286-3.3928-2.3383-1.8852-1.0392 1.3614-1.8127-0.51766-2.6987-0.36809zm1.6647 2.7825c1.8153-0.20883 2.6255 2.5443 0.99169 3.3774-1.6058 0.99594-3.5475-1.228-2.3468-2.6864 0.3094-0.42572 0.82541-0.7058 1.3551-0.69108z" fill="#ffffff"/>
</svg>
