<?xml version="1.0" encoding="UTF-8"?>
<svg width="100" height="100" version="1.1" viewBox="0 0 26.458 26.458" xmlns="http://www.w3.org/2000/svg">
  <path d="m15.219 13.223 10.861-10.861q0.39126-0.44521 0.37778-0.97137-0.01358-0.52616-0.39126-0.94439-0.36428-0.43172-0.95792-0.43172t-0.98491 0.40474l-10.834 10.861-10.861-10.861q-0.39126-0.44521-0.97142-0.41823-0.56666 0.013498-1.0119 0.44521-0.44523 0.41823-0.44523 0.95788t0.44523 0.95788l10.861 10.861-10.861 10.914q-0.44523 0.39125-0.44523 0.95788 0 0.58013 0.44523 0.97137 0.39126 0.39125 0.95792 0.39125 0.63412 0 1.0254-0.39125l10.861-10.861 10.834 10.861q0.39126 0.39125 0.98491 0.39125 0.59364 0 0.95792-0.39125 0.37777-0.39125 0.37777-0.98487t-0.36428-0.94439z" stroke-width=".26458"/>
</svg>
