<?xml version="1.0" encoding="UTF-8"?>
<svg width="101.72" height="100" version="1.1" viewBox="0 0 26.914 26.458" xmlns="http://www.w3.org/2000/svg">
  <path d="m13.457 3.758q-1.9125 0-3.7111 0.72856-1.7873 0.71718-3.1647 2.0946-1.3774 1.3774-2.106 3.1761-0.71718 1.7873-0.71718 3.6997 0 3.1988 1.8442 5.726 1.8442 2.5272 4.804 3.5062 0.33013 0.04554 0.47812-0.10245 0.14799-0.14799 0.14799-0.38705v-1.6279q-1.6734 0.37567-2.6297-0.46674-0.4895-0.37566-0.63749-0.86517-0.18214-0.4895-0.51227-0.86517-0.18214-0.28459-0.39843-0.4212l-0.18214-0.1366q-0.37566-0.2846-0.37566-0.40982 0-0.12522 0.23906-0.12522l0.22768-0.04554q0.58057 0.04554 1.0928 0.55781 0.28459 0.22768 0.3529 0.44397 0.58057 0.95624 1.5596 1.0473 0.58057 0.04554 1.3091-0.22768 0.09107-0.86517 0.60334-1.3091-2.0035-0.22768-3.0053-1.0928-1.423-1.1839-1.423-3.6883 0-1.4913 1.0018-2.6069-0.18214-0.4212-0.15937-0.9107-0.09107-0.81963 0.25044-1.6848h0.28459q0.37566 0 0.86517 0.19352 0.71718 0.28459 1.5368 0.81963 1.1384-0.33013 2.4247-0.33013t2.4247 0.33013q1.1839-0.7741 2.0263-0.95624 0.46674-0.09107 0.64888-0.056919 0.37566 0.86517 0.26183 1.6848 0 0.4895-0.15937 0.9107 1.0018 1.0928 1.0018 2.6069 0 2.5386-1.423 3.6883-1.0473 0.86517-3.0053 1.0928 0.62611 0.58057 0.64888 1.8214v2.6297q0 0.22768 0.14799 0.37566 0.15937 0.15937 0.52365 0.11384 2.9142-1.0018 4.7584-3.5176 1.8442-2.5158 1.8442-5.7147 0-1.9125-0.72856-3.6997-0.71718-1.7986-2.0946-3.1761-1.3774-1.3774-3.1761-2.0946-1.7873-0.72856-3.6997-0.72856z" fill="#000000" stroke-width=".26458" aria-label="󰊤"/>
</svg>
